<?xml version="1.0" encoding="UTF-8" standalone="no"?>
<!DOCTYPE svg PUBLIC "-//W3C//DTD SVG 1.1//EN" "http://www.w3.org/Graphics/SVG/1.1/DTD/svg11.dtd">
<svg width="100%" height="100%" viewBox="0 0 810 379" version="1.1" xmlns="http://www.w3.org/2000/svg" xmlns:xlink="http://www.w3.org/1999/xlink" xml:space="preserve" xmlns:serif="http://www.serif.com/" style="fill-rule:evenodd;clip-rule:evenodd;stroke-linejoin:round;stroke-miterlimit:2;">
    <g transform="matrix(1,0,0,1,4.78025,2.64348)">
        <g transform="matrix(0.996169,0,0,0.30021,1.0101,191.748)">
            <rect x="-1.014" y="0" width="803.077" height="599.58" style="fill:rgb(255,193,17);"/>
        </g>
        <g transform="matrix(0.906148,0,0,0.906148,49.7693,233.224)">
            <g transform="matrix(10.9796,0,0,10.9796,-460.379,-426.837)">
                <path d="M53.267,38.961L46.892,38.961C46.147,38.93 45.443,39.316 45.069,39.961L45.049,40.001C44.62,40.884 42.37,45.335 41.981,46.711C41.938,46.85 41.922,46.996 41.935,47.141C41.949,47.285 42.001,47.423 42.086,47.541C42.361,47.838 42.726,48.036 43.124,48.105L43.224,48.117L43.324,48.117C43.379,48.125 43.435,48.129 43.491,48.129C46.772,48.122 48.91,48.129 49.698,48.138C50.456,48.188 51.2,47.917 51.748,47.391C51.799,47.337 51.846,47.278 51.887,47.216C51.945,47.131 52.034,46.96 52.034,46.96L53.22,44.5L49.096,44.5L49.054,44.6C48.697,45.414 48.276,46.361 48.217,46.468C48.208,46.484 48.199,46.5 48.192,46.517L48.178,46.548C48.143,46.653 48.077,46.745 47.988,46.811C47.811,46.937 47.703,46.968 47.121,46.968C46.745,46.968 46.321,46.962 46.181,46.789C46.041,46.616 46.072,46.351 46.231,46.003L48.624,40.875L48.693,40.722C48.766,40.502 48.916,40.315 49.115,40.196C49.37,40.111 49.641,40.086 49.908,40.121C50.508,40.146 50.592,40.165 50.749,40.36C50.786,40.421 50.806,40.489 50.81,40.56C50.806,40.654 50.785,40.746 50.749,40.833C50.731,40.885 50.701,40.956 50.701,40.956C50.701,40.956 50.606,41.178 50.389,41.667L50.289,41.888L54.57,41.888L54.61,41.794C54.723,41.545 54.959,40.816 55.029,40.594C55.029,40.583 55.052,40.484 55.052,40.484L55.081,40.339C55.081,40.334 55.095,40.177 55.095,40.177C55.03,39.52 54.491,39.004 53.832,38.967L53.632,38.953L53.267,38.953" style="fill-rule:nonzero;"/>
            </g>
            <g transform="matrix(10.9796,0,0,10.9796,-823.21,-470.645)">
                <path d="M110.782,47.187L110.072,48.842L114.443,48.842L115.135,47.187L110.782,47.187Z" style="fill-rule:nonzero;"/>
            </g>
            <g transform="matrix(10.9796,0,0,10.9796,-872.683,-426.87)">
                <path d="M123.151,39.649L122.866,39.928L122.655,40.184L122.392,40.644L122.133,41.239L121.884,41.864L125.604,41.858L126.053,40.889L126.191,40.635C126.207,40.604 126.257,40.522 126.275,40.491C126.365,40.312 126.53,40.181 126.725,40.133C126.807,40.117 126.89,40.109 126.974,40.107L127.428,40.107C127.946,40.107 128.192,40.138 128.3,40.341C128.348,40.423 128.374,40.515 128.375,40.61C128.37,40.681 128.358,40.751 128.34,40.819C128.327,40.878 128.307,40.936 128.279,40.99C128.251,41.044 127.727,42.262 127.7,42.318C127.638,42.323 122.169,42.654 122.169,42.654C121.547,42.635 120.972,42.996 120.72,43.566C120.712,43.588 119.479,46.394 119.42,46.595C119.412,46.631 119.402,46.668 119.39,46.703L119.369,46.828L119.369,46.999C119.404,47.649 119.948,48.164 120.599,48.164C120.65,48.164 120.701,48.161 120.751,48.155L127.041,48.155C127.653,48.153 128.255,48.005 128.799,47.724C129.141,47.51 129.408,47.196 129.564,46.824C129.67,46.58 132.172,40.84 132.204,40.718C132.214,40.704 132.221,40.689 132.225,40.672C132.24,40.625 132.252,40.577 132.261,40.528C132.261,40.492 132.261,40.539 132.275,40.397L132.275,40.308L132.263,40.091C132.152,39.461 131.602,38.996 130.963,38.991L130.54,38.971L124.961,38.971C124.299,38.994 123.663,39.235 123.152,39.656M127.02,43.547C127.02,43.547 127.056,43.547 127.09,43.542C127.037,43.649 126.933,43.875 126.933,43.875C126.535,44.811 126.088,45.726 125.594,46.615C125.356,46.846 125.288,46.844 124.694,46.84L124.303,46.84C124.126,46.857 123.95,46.797 123.82,46.675C123.75,46.591 123.712,46.484 123.713,46.375C123.714,46.266 123.72,46.305 123.728,46.251C123.736,46.197 123.797,46.01 123.801,45.999C123.822,45.948 123.928,45.699 124.473,44.413L124.504,44.353C124.664,43.975 125.012,43.709 125.418,43.653L127.02,43.547Z" style="fill-rule:nonzero;"/>
            </g>
            <g transform="matrix(10.9796,0,0,10.9796,-577.279,-426.87)">
                <path d="M67.664,39.649L67.379,39.928L67.179,40.184L66.916,40.644L66.656,41.239L66.409,41.864L70.13,41.858L70.58,40.889L70.716,40.635C70.73,40.604 70.78,40.522 70.797,40.491C70.886,40.313 71.048,40.183 71.241,40.133C71.324,40.117 71.408,40.108 71.493,40.107L71.941,40.107C72.462,40.107 72.696,40.138 72.805,40.341C72.854,40.422 72.881,40.515 72.883,40.61C72.877,40.681 72.865,40.75 72.847,40.819C72.833,40.878 72.812,40.936 72.784,40.99C72.756,41.044 72.242,42.262 72.22,42.318C72.154,42.323 66.695,42.654 66.695,42.654C66.066,42.628 65.482,42.991 65.227,43.566C65.218,43.588 63.999,46.394 63.941,46.595C63.941,46.585 63.911,46.703 63.911,46.703L63.89,46.828L63.883,46.899L63.883,46.999C63.919,47.649 64.463,48.164 65.114,48.164C65.163,48.164 65.212,48.161 65.26,48.155L65.67,48.155C65.665,48.155 70.987,48.165 71.555,48.155C72.165,48.152 72.766,48.004 73.308,47.724C73.654,47.512 73.925,47.197 74.084,46.824C74.192,46.58 76.677,40.84 76.709,40.718C76.717,40.703 76.723,40.688 76.728,40.672C76.743,40.625 76.756,40.577 76.766,40.528C76.766,40.492 76.766,40.539 76.78,40.397L76.78,40.308C76.78,40.302 76.77,40.091 76.77,40.091C76.656,39.463 76.108,38.999 75.47,38.991L75.054,38.971L69.473,38.971C68.811,38.994 68.175,39.235 67.664,39.656M71.543,43.547C71.543,43.547 71.577,43.547 71.612,43.542C71.561,43.649 71.456,43.875 71.456,43.875C71.059,44.811 70.615,45.725 70.124,46.615C69.88,46.846 69.803,46.844 69.203,46.84L68.809,46.84C68.632,46.857 68.457,46.797 68.328,46.675C68.257,46.591 68.218,46.485 68.218,46.375C68.218,46.265 68.228,46.305 68.237,46.251C68.246,46.197 68.307,46.01 68.308,45.999C68.331,45.948 68.434,45.699 68.978,44.413L69.01,44.353C69.174,43.973 69.528,43.706 69.939,43.653L71.543,43.547Z" style="fill-rule:nonzero;"/>
            </g>
            <g transform="matrix(10.9796,0,0,10.9796,-689.468,-425.947)">
                <path d="M95.381,38.925L95.267,38.953L94.812,39.06C94.233,39.196 93.646,39.294 93.054,39.354C93.03,39.358 93.005,39.347 92.993,39.325C92.973,39.301 92.975,39.301 92.973,39.278C92.972,39.265 92.972,39.251 92.973,39.238L92.973,38.889L88.995,38.889L84.959,48.072L88.9,48.072C88.9,48.072 92.067,41.082 92.081,41.053C92.12,40.976 92.163,40.901 92.21,40.829C92.31,40.681 92.486,40.529 93.077,40.535L93.257,40.535C93.594,40.535 93.977,40.526 94.136,40.718C94.225,40.812 94.265,40.944 94.243,41.072C94.223,41.217 94.184,41.359 94.125,41.493L91.225,48.076L95.208,48.076L98.271,40.976C98.404,40.695 98.467,40.386 98.456,40.076C98.418,39.684 98.189,39.335 97.845,39.145C97.079,38.776 96.204,38.7 95.386,38.931" style="fill-rule:nonzero;"/>
            </g>
            <g transform="matrix(10.9796,0,0,10.9796,-985.103,-425.947)">
                <path d="M157.14,38.891L154.24,39.575C154.125,39.615 154.004,39.637 153.882,39.642C153.857,39.602 153.829,39.564 153.798,39.528L153.743,39.453C153.642,39.326 153.518,39.219 153.377,39.139C152.612,38.772 151.74,38.695 150.923,38.925L150.434,39.045C149.838,39.181 149.234,39.284 148.626,39.351C148.565,39.351 148.536,39.357 148.515,39.335C148.494,39.313 148.493,39.242 148.493,39.242L148.486,38.884L144.5,38.884L140.477,48.068L144.418,48.068L147.6,41.049C147.6,41.049 147.655,40.955 147.729,40.826C147.829,40.679 148.007,40.526 148.607,40.532L148.793,40.532C149.13,40.532 149.514,40.523 149.673,40.714C149.759,40.81 149.796,40.941 149.773,41.068C149.754,41.213 149.715,41.355 149.658,41.489L146.752,48.073L150.737,48.073C150.737,48.073 153.477,41.744 153.737,41.184L153.843,40.966C154.047,40.65 154.418,40.481 154.79,40.535L154.97,40.535C155.294,40.535 155.688,40.521 155.876,40.703C155.959,40.772 155.998,40.881 155.976,40.987C155.968,41.129 155.936,41.269 155.881,41.401L155.808,41.586L152.937,48.08L156.932,48.08L160.008,40.943C160.114,40.688 160.163,40.413 160.152,40.137C160.156,39.742 159.954,39.372 159.618,39.163C158.845,38.796 157.97,38.702 157.137,38.896" style="fill-rule:nonzero;"/>
            </g>
            <g transform="matrix(10.9796,0,0,10.9796,-1165.35,-510.556)">
                <path d="M175.172,54.826C175.547,54.826 175.856,55.135 175.856,55.51C175.856,55.884 175.547,56.193 175.172,56.193C175.163,56.193 175.155,56.194 175.146,56.194C174.771,56.194 174.462,55.885 174.462,55.51C174.462,55.134 174.771,54.826 175.146,54.826C175.155,54.826 175.163,54.826 175.172,54.826M175.172,56.339C175.626,56.333 175.997,55.96 176.001,55.506C176.001,55.047 175.624,54.67 175.165,54.67C174.706,54.67 174.329,55.047 174.329,55.506C174.335,55.964 174.714,56.338 175.172,56.339" style="fill-rule:nonzero;"/>
            </g>
            <g transform="matrix(10.9796,0,0,10.9796,-1170.71,-514.157)">
                <path d="M175.516,55.5L175.645,55.5C175.753,55.5 175.867,55.5 175.867,55.629C175.867,55.758 175.752,55.762 175.645,55.762L175.516,55.762L175.516,55.5ZM175.516,55.908L175.645,55.908L175.877,56.294L176.056,56.294L175.818,55.894C175.941,55.886 176.037,55.783 176.037,55.66C176.037,55.652 176.037,55.643 176.036,55.635C176.036,55.453 175.936,55.351 175.71,55.351L175.338,55.351L175.338,56.291L175.517,56.291L175.516,55.908Z" style="fill-rule:nonzero;"/>
            </g>
        </g>
    </g>
    <g transform="matrix(1,0,0,1,4.78025,5.64348)">
        <g transform="matrix(0.996169,0,0,0.30021,1.0101,0)">
            <rect x="-1.014" y="0" width="803.077" height="599.58" style="fill:rgb(255,193,17);"/>
        </g>
        <g transform="matrix(2.18728,0,0,2.18728,35.8252,51.69)">
            <g>
                <g>
                    <g>
                        <path d="M62.1,35.6L96.2,35.6C97.3,35.6 98.4,34.5 98.4,33.2L98.4,27.9C98.4,26.6 97.3,25.6 96.1,25.6L69.7,25.6C68.7,25.6 67.9,24.8 67.9,23.8C67.9,22.8 68.7,22 69.7,22L96.1,22C97.3,22 98.4,20.9 98.4,19.6L98.4,16.4C98.4,15.2 97.3,14.1 96.1,14.1L69.7,14.1C68.7,14.1 67.9,13.3 67.9,12.3C67.9,11.3 68.7,10.5 69.7,10.5L96.1,10.5C97.2,10.5 98.4,9.4 98.4,8.1L98.4,2.3C98.4,1.1 97.3,0 96.1,0L62.1,0C57.8,0 54.3,3.5 54.3,7.8L54.3,27.9C54.3,32.1 57.8,35.6 62.1,35.6Z" style="fill-rule:nonzero;"/>
                        <path d="M110.2,35.6L134.6,35.6C134.6,35.6 137.3,35.6 135.2,33.2C134.3,32.2 131.6,29.2 129.9,27.4C128.2,25.5 127.6,25.6 126.7,25.6L119.3,25.6C118,25.6 117,24.5 117,23.3L117,12.8C117,11.5 118.9,10.5 120.6,12.3C120.6,12.3 139.4,33.3 140.6,34.5C141.8,35.7 143.1,35.6 143.1,35.6L157.2,35.6C158.1,35.6 159.2,34.4 158.1,33.2L129.8,1.7C128.2,0.1 127.6,0 126.3,0L110.2,0C105.9,0 102.4,3.5 102.4,7.8L102.4,27.9C102.4,32.1 105.9,35.6 110.2,35.6Z" style="fill-rule:nonzero;"/>
                        <path d="M204.2,25.7L174.4,25.7C173.5,25.7 172.9,25.6 171.2,27.5C169.5,29.4 166.8,32.3 165.9,33.3C163.8,35.7 166.5,35.7 166.5,35.7L213.3,35.7C217.6,35.7 221.1,32.2 221.1,27.9L221.1,7.8C221.1,3.5 217.6,0 213.3,0L197.2,0C195.9,0 195.3,0.2 193.7,1.7L176.6,20.8C175.5,21.9 176.6,23.1 177.5,23.1L191.6,23.1C191.6,23.1 192.9,23.2 194.1,22C195.3,20.8 203.1,12.3 203.1,12.3C204.7,10.4 206.7,11.5 206.7,12.8L206.7,23.4C206.5,24.6 205.5,25.7 204.2,25.7Z" style="fill-rule:nonzero;"/>
                        <path d="M162,25.5C168.1,25.5 173,20.6 173,14.5C173,8.4 168.1,3.5 162,3.5C155.9,3.5 151,8.4 151,14.5C151,20.5 155.9,25.5 162,25.5Z" style="fill-rule:nonzero;"/>
                        <path d="M233.2,35.6L264.4,35.6C268.7,35.6 272.2,32.1 272.2,27.8L272.2,7.8C272.2,3.5 268.7,0 264.4,0L233.2,0C228.9,0 225.4,3.5 225.4,7.8L225.4,27.9C225.5,32.1 228.9,35.6 233.2,35.6ZM242.2,12.3C242.2,11.3 243,10.4 244.1,10.4L253.6,10.4C254.6,10.4 255.5,11.2 255.5,12.3L255.5,24C255.5,25 254.7,25.9 253.6,25.9L244.1,25.9C243.1,25.9 242.2,25.1 242.2,24L242.2,12.3Z" style="fill-rule:nonzero;"/>
                        <path d="M284.2,35.6L315.4,35.6C319.7,35.6 323.2,32.1 323.2,27.8L323.2,7.8C323.2,3.5 319.7,0 315.4,0L284.2,0C279.9,0 276.4,3.5 276.4,7.8L276.4,27.9C276.4,32.1 279.9,35.6 284.2,35.6ZM293.2,12.3C293.2,11.3 294,10.4 295.1,10.4L304.6,10.4C305.6,10.4 306.5,11.2 306.5,12.3L306.5,24C306.5,25 305.7,25.9 304.6,25.9L295,25.9C294,25.9 293.1,25.1 293.1,24L293.1,12.3L293.2,12.3Z" style="fill-rule:nonzero;"/>
                        <path d="M2.3,35.6L42.1,35.6C46.4,35.6 49.9,32.1 49.9,27.8L49.9,16.4C49.9,15.1 48.9,14.1 47.6,14.1L22.2,14.1C21.1,14.1 20.2,13.3 20.2,12.3C20.2,11.3 21.1,10.5 22.2,10.5L47.6,10.5C48.9,10.5 49.9,9.4 49.9,8.1L49.9,2.4C49.9,1.1 48.8,0.1 47.6,0.1L13.7,0.1C9.2,0 5.7,3.5 5.7,7.8L5.7,19.7C5.7,21.2 6.7,22.1 8,22.1L30.8,22.1C32,22.1 32.9,22.9 32.9,23.9C32.9,24.9 31.9,25.7 30.8,25.7L2.2,25.7C1,25.7 0,26.8 0,28L0,33.3C0,34.7 1,35.6 2.3,35.6Z" style="fill-rule:nonzero;"/>
                    </g>
                    <g>
                        <g>
                            <path d="M329.4,35.6C331.4,35.6 333.1,34 333.1,32C333.1,30 331.4,28.4 329.4,28.4C327.4,28.4 325.7,30 325.7,32C325.7,34 327.3,35.6 329.4,35.6ZM329.4,29.1C331.1,29.1 332.4,30.4 332.4,32.1C332.4,33.7 331.1,35.1 329.4,35.1C327.7,35.1 326.4,33.8 326.4,32.1C326.3,30.4 327.7,29.1 329.4,29.1Z" style="fill-rule:nonzero;"/>
                            <path d="M328.7,32.4L329.3,32.4L330.3,34.1L331.1,34.1L330,32.4C330.6,32.3 331,32 331,31.3C331,30.5 330.5,30.1 329.5,30.1L327.9,30.1L327.9,34.2L328.7,34.2L328.7,32.4ZM328.7,30.6L329.3,30.6C329.8,30.6 330.3,30.6 330.3,31.2C330.3,31.8 329.8,31.8 329.3,31.8L328.7,31.8L328.7,30.6Z" style="fill-rule:nonzero;"/>
                        </g>
                    </g>
                </g>
            </g>
        </g>
    </g>
    <g id="Artboard1" transform="matrix(30.1527,0,0,14.3068,2054.82,-7293.44)">
        <rect x="-68.147" y="509.79" width="26.853" height="26.434" style="fill:none;"/>
    </g>
</svg>
