<svg height="9.842" viewBox="0 0 70.438 9.842" width="70.438" xmlns="http://www.w3.org/2000/svg"><path d="m53.267 38.961h-6.375a2.009 2.009 0 0 0 -1.823 1l-.02.04c-.429.883-2.679 5.334-3.068 6.71a1.116 1.116 0 0 0 -.046.43.819.819 0 0 0 .151.4 1.842 1.842 0 0 0 1.038.564l.1.012h.1a1.322 1.322 0 0 0 .167.012c3.281-.007 5.419 0 6.207.009a2.7 2.7 0 0 0 2.05-.747 1.33 1.33 0 0 0 .139-.175c.058-.085.147-.256.147-.256l1.186-2.46h-4.124l-.042.1c-.357.814-.778 1.761-.837 1.868a.5.5 0 0 0 -.025.049l-.014.031a.534.534 0 0 1 -.19.263c-.177.126-.285.157-.867.157-.376 0-.8-.006-.94-.179s-.109-.438.05-.786l2.393-5.128.069-.153a.967.967 0 0 1 .422-.526 1.78 1.78 0 0 1 .793-.075c.6.025.684.044.841.239a.429.429 0 0 1 .061.2.792.792 0 0 1 -.061.273c-.018.052-.048.123-.048.123s-.095.222-.312.711l-.1.221h4.281l.04-.094c.113-.249.349-.978.419-1.2 0-.011.023-.11.023-.11l.029-.145c0-.005.014-.162.014-.162a1.344 1.344 0 0 0 -1.263-1.21l-.2-.014h-.365" transform="translate(-41.93 -38.872)"/><path d="m110.782 47.187-.71 1.655h4.371l.692-1.655z" transform="translate(-74.976 -42.862)"/><path d="m123.151 39.649-.285.279s-.211.256-.211.256l-.263.46s-.259.595-.259.595l-.249.625 3.72-.006.449-.969.138-.254c.016-.031.066-.113.084-.144a.685.685 0 0 1 .45-.358 1.462 1.462 0 0 1 .249-.026h.454c.518 0 .764.031.872.234a.544.544 0 0 1 .075.269 1.1 1.1 0 0 1 -.035.209.709.709 0 0 1 -.061.171s-.552 1.272-.579 1.328c-.062.005-5.531.336-5.531.336a1.532 1.532 0 0 0 -1.449.912c-.008.022-1.241 2.828-1.3 3.029a1.1 1.1 0 0 1 -.03.108l-.021.125v.071.1a1.232 1.232 0 0 0 1.382 1.156h.087s.3 0 .328 0c0 0 5.3.01 5.875 0a3.865 3.865 0 0 0 1.758-.431 1.952 1.952 0 0 0 .765-.9c.106-.244 2.608-5.984 2.64-6.106a.129.129 0 0 0 .021-.046 1.281 1.281 0 0 0 .036-.144c0-.036 0 .011.014-.131v-.089l-.012-.217a1.331 1.331 0 0 0 -1.3-1.1l-.423-.02h-.216-5.363a3.012 3.012 0 0 0 -1.809.685m3.868 3.891s.036 0 .07-.005c-.053.107-.157.333-.157.333a29.3 29.3 0 0 1 -1.339 2.74c-.238.231-.306.229-.9.225h-.391a.621.621 0 0 1 -.483-.165.465.465 0 0 1 -.107-.3s.007-.07.015-.124.069-.241.073-.252c.021-.051.127-.3.672-1.586l.031-.06a1.164 1.164 0 0 1 .914-.7z" transform="translate(-79.482 -38.875)"/><path d="m67.664 39.649-.285.279s-.2.256-.2.256l-.263.46-.26.595-.247.625 3.721-.006.45-.969.136-.254c.014-.031.064-.113.081-.144a.689.689 0 0 1 .444-.358 1.472 1.472 0 0 1 .252-.026h.448c.521 0 .755.031.864.234a.546.546 0 0 1 .078.269 1.332 1.332 0 0 1 -.036.209.742.742 0 0 1 -.063.171s-.542 1.272-.564 1.328c-.066.005-5.525.336-5.525.336a1.536 1.536 0 0 0 -1.468.912c-.009.022-1.228 2.828-1.286 3.029 0-.01-.03.108-.03.108s-.021.125-.021.125-.007.071-.007.071v.1a1.233 1.233 0 0 0 1.377 1.156h.084s.3 0 .326 0c-.005 0 5.317.01 5.885 0a3.852 3.852 0 0 0 1.753-.431 1.948 1.948 0 0 0 .776-.9c.108-.244 2.593-5.984 2.625-6.106a.246.246 0 0 0 .019-.046 1.287 1.287 0 0 0 .038-.144c0-.036 0 .011.014-.131v-.089c0-.006-.01-.217-.01-.217a1.338 1.338 0 0 0 -1.3-1.1l-.416-.02h-.207-5.374a3.014 3.014 0 0 0 -1.809.685m3.879 3.891s.034 0 .069-.005c-.051.107-.156.333-.156.333a29.611 29.611 0 0 1 -1.332 2.74c-.244.231-.321.229-.921.225h-.394a.614.614 0 0 1 -.481-.165.469.469 0 0 1 -.11-.3s.01-.07.019-.124.07-.241.071-.252c.023-.051.126-.3.67-1.586l.032-.06a1.176 1.176 0 0 1 .929-.7z" transform="translate(-52.577 -38.875)"/><path d="m95.381 38.925-.114.028-.455.107a13.657 13.657 0 0 1 -1.758.294.058.058 0 0 1 -.061-.029c-.02-.024-.018-.024-.02-.047a.281.281 0 0 1 0-.04v-.349h-3.978l-4.036 9.183h3.941s3.167-6.99 3.181-7.019a2.222 2.222 0 0 1 .129-.224c.1-.148.276-.3.867-.294h.18c.337 0 .72-.009.879.183a.413.413 0 0 1 .107.354 1.572 1.572 0 0 1 -.118.421l-2.9 6.583h3.983l3.063-7.1a1.937 1.937 0 0 0 .185-.9 1.194 1.194 0 0 0 -.611-.931 3.484 3.484 0 0 0 -2.459-.214" transform="translate(-62.795 -38.791)"/><path d="m157.14 38.891-2.9.684a1.244 1.244 0 0 1 -.358.067 1.041 1.041 0 0 0 -.084-.114l-.055-.075a1.259 1.259 0 0 0 -.366-.314 3.487 3.487 0 0 0 -2.454-.214l-.489.12a16 16 0 0 1 -1.808.306c-.061 0-.09.006-.111-.016s-.022-.093-.022-.093l-.007-.358h-3.986l-4.023 9.184h3.941l3.182-7.019s.055-.094.129-.223c.1-.147.278-.3.878-.294h.186c.337 0 .721-.009.88.182a.422.422 0 0 1 .1.354 1.6 1.6 0 0 1 -.115.421l-2.906 6.584h3.985s2.74-6.329 3-6.889l.106-.218a.964.964 0 0 1 .947-.431h.18c.324 0 .718-.014.906.168a.293.293 0 0 1 .1.284 1.265 1.265 0 0 1 -.095.414l-.073.185-2.871 6.494h3.995l3.076-7.137a1.892 1.892 0 0 0 .144-.806 1.132 1.132 0 0 0 -.534-.974 3.782 3.782 0 0 0 -2.481-.267" transform="translate(-89.721 -38.791)"/><path d="m175.172 54.826a.683.683 0 0 1 0 1.367.684.684 0 1 1 0-1.367m0 1.513a.84.84 0 0 0 .829-.833.836.836 0 0 0 -1.672 0 .844.844 0 0 0 .843.833" transform="translate(-106.138 -46.497)"/><path d="m175.516 55.5h.129c.108 0 .222 0 .222.129s-.115.133-.222.133h-.129zm0 .408h.129l.232.386h.179l-.238-.4a.234.234 0 0 0 .218-.259c0-.182-.1-.284-.326-.284h-.372v.94h.179z" transform="translate(-106.626 -46.825)"/></svg>