<?xml version="1.0" encoding="UTF-8" standalone="no"?>
<!DOCTYPE svg PUBLIC "-//W3C//DTD SVG 1.1//EN" "http://www.w3.org/Graphics/SVG/1.1/DTD/svg11.dtd">
<svg width="100%" height="100%" viewBox="0 0 730 359" version="1.1" xmlns="http://www.w3.org/2000/svg" xmlns:xlink="http://www.w3.org/1999/xlink" xml:space="preserve" xmlns:serif="http://www.serif.com/" style="fill-rule:evenodd;clip-rule:evenodd;stroke-linejoin:round;stroke-miterlimit:2;">
    <g transform="matrix(4.16667,0,0,4.16667,0,0)">
        <rect x="0.616" y="0.72" width="173.668" height="85.038" style="fill:rgb(0,0,15);fill-rule:nonzero;"/>
        <rect x="0.616" y="66.551" width="173.668" height="5.669" style="fill:rgb(122,193,66);fill-rule:nonzero;"/>
        <rect x="0.616" y="74.611" width="173.668" height="11.338" style="fill:rgb(122,193,66);fill-rule:nonzero;"/>
        <rect x="0.616" y="62.156" width="173.668" height="2.834" style="fill:rgb(122,193,66);fill-rule:nonzero;"/>
        <rect x="147.591" y="18.386" width="5.928" height="4.148" style="fill:white;fill-rule:nonzero;"/>
        <path d="M56.054,26.817L62.201,26.817L64.297,33.707L66.462,26.817L71.599,26.817L73.583,33.707L75.871,26.817L81.685,26.817L77.166,41.506L71.405,41.506L69.091,34.316L67.106,41.506L61.127,41.506L56.054,26.817Z" style="fill:white;fill-rule:nonzero;"/>
        <path d="M97.374,36.374L102.777,36.374C102.777,36.374 102.751,38.585 105.093,38.585C106.968,38.585 106.911,37.487 106.911,37.487C106.911,37.487 106.968,36.351 104.903,36.02C102.587,35.671 97.653,35.252 97.653,31.145C97.653,31.145 97.211,26.116 104.794,26.116C110.166,26.116 111.983,28.476 111.983,31.232L106.828,31.232C106.716,30.434 106.057,29.603 104.927,29.603C103.801,29.603 103.168,30.017 103.168,30.541C103.168,31.229 103.605,31.501 106.745,31.914C110.357,32.658 112.426,33.57 112.426,37.292C112.426,41.012 108.538,42.226 105.041,42.226C101.539,42.226 97.374,41.058 97.374,36.374Z" style="fill:white;fill-rule:nonzero;"/>
        <path d="M119.525,35.976C118.257,36.528 118.891,37.493 118.891,37.493C118.891,37.493 119.525,38.538 121.037,38.152C123.215,37.576 123.051,34.681 123.051,34.681C123.051,34.681 120.789,35.427 119.525,35.976ZM118.94,31.853L113.554,31.853C113.554,31.853 112.412,25.918 121.451,25.918C121.451,25.918 128.157,25.532 128.518,30.741C128.872,35.948 128.152,39.491 129.699,41.515L123.931,41.515C123.931,41.515 123.407,40.826 123.133,40.165C123.133,40.165 121.589,41.985 118.283,41.985C114.976,41.985 113.114,40.054 113.114,37.576C113.114,35.095 114.554,33.274 119.167,32.448C121.01,32.117 122.664,31.896 122.749,30.879C122.828,29.859 121.424,29.665 121.063,29.665C121.063,29.665 118.958,29.51 118.94,31.853Z" style="fill:white;fill-rule:nonzero;"/>
        <rect x="147.592" y="26.815" width="5.927" height="14.692" style="fill:white;fill-rule:nonzero;"/>
        <path d="M136.107,41.511L130.184,41.511L130.184,21.178L136.107,21.178L136.107,30.305L139.112,26.811L146.087,26.811L140.929,32.295L146.956,41.506L140.121,41.506L136.865,36.556L136.107,37.372L136.107,41.511Z" style="fill:white;fill-rule:nonzero;"/>
        <path d="M20.99,21.178L27.167,21.178L27.167,27.377L33.338,21.178L41.06,21.178L33.177,29.284L41.645,41.509L33.612,41.509L28.76,33.846L27.16,35.495L27.16,41.511L20.99,41.511L20.99,21.178Z" style="fill:white;fill-rule:nonzero;"/>
        <path d="M47.336,35.976C46.066,36.528 46.702,37.493 46.702,37.493C46.702,37.493 47.336,38.538 48.851,38.152C51.028,37.576 50.861,34.681 50.861,34.681C50.861,34.681 48.603,35.427 47.336,35.976ZM46.749,31.853L41.366,31.853C41.366,31.853 40.226,25.918 49.265,25.918C49.265,25.918 55.971,25.532 56.329,30.741C56.687,35.948 55.965,39.491 57.513,41.515L51.746,41.515C51.746,41.515 51.218,40.826 50.946,40.165C50.946,40.165 49.403,41.985 46.096,41.985C42.789,41.985 40.924,40.054 40.924,37.576C40.924,35.095 42.366,33.274 46.979,32.448C48.824,32.117 50.476,31.896 50.558,30.879C50.64,29.859 49.237,29.665 48.879,29.665C48.879,29.665 46.77,29.51 46.749,31.853Z" style="fill:white;fill-rule:nonzero;"/>
        <path d="M87.424,35.976C86.159,36.528 86.79,37.493 86.79,37.493C86.79,37.493 87.424,38.538 88.938,38.152C91.114,37.576 90.954,34.681 90.954,34.681C90.954,34.681 88.692,35.427 87.424,35.976ZM86.838,31.853L81.454,31.853C81.454,31.853 80.312,25.918 89.351,25.918C89.351,25.918 96.062,25.532 96.423,30.741C96.779,35.948 96.055,39.491 97.6,41.515L91.832,41.515C91.832,41.515 91.309,40.826 91.035,40.165C91.035,40.165 89.489,41.985 86.186,41.985C82.876,41.985 81.011,40.054 81.011,37.576C81.011,35.095 82.449,33.274 87.065,32.448C88.911,32.117 90.564,31.896 90.647,30.879C90.731,29.859 89.324,29.665 88.967,29.665C88.967,29.665 86.857,29.51 86.838,31.853Z" style="fill:white;fill-rule:nonzero;"/>
    </g>
</svg>
