<?xml version="1.0" encoding="UTF-8" standalone="no"?>
<!DOCTYPE svg PUBLIC "-//W3C//DTD SVG 1.1//EN" "http://www.w3.org/Graphics/SVG/1.1/DTD/svg11.dtd">
<svg width="100%" height="100%" viewBox="0 0 176 30" version="1.1" xmlns="http://www.w3.org/2000/svg" xmlns:xlink="http://www.w3.org/1999/xlink" xml:space="preserve" xmlns:serif="http://www.serif.com/" style="fill-rule:evenodd;clip-rule:evenodd;stroke-linejoin:round;stroke-miterlimit:2;">
    <g transform="matrix(0.999101,0,0,0.999101,-9.11679,-81.9133)">
        <path d="M71.893,106.415L71.893,87.978L77.133,87.978L77.133,93.375L84.606,87.978L92.419,87.978L92.416,87.973L93.189,87.978L93.515,87.978L93.512,87.98L99.08,88.015L103.406,93.661L107.733,88.015L114.394,87.973L106.19,98.746L106.19,106.415L100.651,106.415L100.651,98.722L92.809,88.487L85.504,93.764L92.71,106.415L85.708,106.415L80.542,97.347L77.133,99.809L77.133,106.415L71.893,106.415ZM114.529,106.415L114.529,87.978L122.145,87.978L125.944,99.018L129.743,87.978L137.682,87.978L137.682,106.415L132.154,106.415L132.154,95.802L128.501,106.415L123.387,106.415L120.058,96.741L120.058,106.415L114.529,106.415ZM173.454,87.524L174.612,87.575L175.74,87.724L176.828,87.968L177.874,88.298L178.869,88.713L179.81,89.207L180.689,89.776L181.502,90.413L182.241,91.115L182.902,91.878L183.478,92.695L183.964,93.563L184.353,94.476L184.638,95.429L184.813,96.417L184.874,97.432L184.813,98.449L184.638,99.437L184.353,100.39L183.964,101.303L183.478,102.171L182.902,102.988L182.241,103.751L181.502,104.453L180.689,105.091L179.81,105.659L178.869,106.153L177.874,106.568L176.828,106.899L175.74,107.142L174.612,107.291L173.454,107.342L172.294,107.291L171.166,107.142L170.077,106.899L169.032,106.568L168.036,106.153L167.095,105.659L166.216,105.091L165.405,104.453L164.664,103.751L164.004,102.988L163.427,102.171L162.942,101.303L162.553,100.39L162.268,99.437L162.093,98.449L162.033,97.432L162.093,96.417L162.268,95.429L162.553,94.476L162.942,93.563L163.427,92.695L164.004,91.878L164.664,91.115L165.405,90.413L166.216,89.776L167.095,89.207L168.036,88.713L169.032,88.298L170.077,87.968L171.166,87.724L172.294,87.575L173.454,87.524ZM173.454,92.692L172.874,92.717L172.313,92.791L171.77,92.911L171.251,93.073L170.757,93.277L170.292,93.518L169.859,93.794L169.461,94.103L169.098,94.443L168.777,94.809L168.498,95.199L168.265,95.611L168.079,96.043L167.943,96.491L167.86,96.955L167.832,97.432L167.86,97.911L167.943,98.374L168.079,98.823L168.265,99.254L168.499,99.667L168.777,100.058L169.098,100.424L169.461,100.762L169.859,101.072L170.292,101.349L170.757,101.59L171.251,101.793L171.77,101.956L172.313,102.075L172.874,102.149L173.454,102.173L174.032,102.149L174.593,102.075L175.135,101.956L175.655,101.793L176.149,101.59L176.614,101.349L177.047,101.072L177.446,100.762L177.808,100.424L178.129,100.058L178.408,99.667L178.641,99.255L178.827,98.823L178.963,98.374L179.046,97.91L179.075,97.432L179.046,96.955L178.963,96.492L178.827,96.043L178.641,95.611L178.408,95.2L178.129,94.809L177.807,94.443L177.446,94.103L177.047,93.795L176.614,93.518L176.148,93.277L175.655,93.073L175.135,92.911L174.593,92.791L174.031,92.717L173.454,92.692ZM150.417,87.524L151.393,87.56L152.345,87.666L153.272,87.838L154.17,88.074L155.035,88.372L155.865,88.728L156.657,89.14L157.406,89.603L158.108,90.117L158.761,90.678L159.361,91.283L159.906,91.929L160.391,92.614L160.812,93.334L161.166,94.088L161.625,95.356L155.484,95.356L155.176,94.916L154.968,94.657L154.74,94.41L154.495,94.176L154.231,93.957L153.95,93.752L153.653,93.561L153.342,93.388L153.015,93.232L152.676,93.093L152.325,92.975L151.962,92.875L151.59,92.796L151.207,92.739L150.816,92.704L150.421,92.692L149.84,92.717L149.278,92.791L148.735,92.911L148.216,93.073L147.722,93.277L147.257,93.518L146.824,93.794L146.426,94.103L146.063,94.443L145.742,94.809L145.463,95.199L145.23,95.611L145.044,96.043L144.908,96.491L144.825,96.955L144.797,97.432L144.825,97.911L144.908,98.374L145.044,98.823L145.23,99.254L145.464,99.667L145.742,100.058L146.063,100.424L146.426,100.762L146.824,101.072L147.257,101.349L147.722,101.59L148.216,101.793L148.735,101.956L149.278,102.075L149.839,102.149L150.421,102.173L150.831,102.161L151.236,102.124L151.632,102.063L152.018,101.978L152.392,101.872L152.754,101.743L153.102,101.595L153.437,101.427L153.755,101.242L154.057,101.039L154.341,100.82L154.608,100.584L154.853,100.336L155.079,100.073L155.284,99.798L155.584,99.325L161.667,99.325L161.235,100.605L160.892,101.376L160.477,102.115L159.997,102.817L159.455,103.48L158.854,104.101L158.198,104.677L157.492,105.203L156.737,105.681L155.937,106.103L155.098,106.47L154.222,106.775L153.312,107.019L152.373,107.196L151.407,107.305L150.417,107.342L149.258,107.291L148.131,107.142L147.042,106.899L145.997,106.568L145.001,106.153L144.061,105.659L143.181,105.091L142.369,104.453L141.629,103.751L140.969,102.988L140.392,102.171L139.907,101.303L139.518,100.39L139.233,99.437L139.058,98.449L138.998,97.432L139.058,96.417L139.233,95.429L139.518,94.476L139.907,93.563L140.392,92.695L140.969,91.878L141.629,91.115L142.369,90.413L143.181,89.776L144.061,89.207L145.001,88.713L145.997,88.298L147.042,87.968L148.131,87.724L149.258,87.575L150.417,87.524ZM36.563,81.987L37.963,82.007L39.345,82.064L40.707,82.158L42.047,82.288L43.366,82.454L44.659,82.653L45.925,82.886L47.164,83.15L48.373,83.447L49.551,83.775L50.696,84.131L51.806,84.516L52.879,84.93L53.914,85.37L54.909,85.837L55.862,86.328L56.773,86.845L57.638,87.386L58.457,87.949L59.228,88.534L59.948,89.141L60.616,89.768L61.23,90.415L61.788,91.081L62.29,91.766L62.731,92.469L63.11,93.189L63.425,93.924L63.674,94.675L63.854,95.438L63.964,96.215L64,97L63.964,97.787L63.854,98.564L63.674,99.328L63.425,100.078L63.11,100.814L62.731,101.533L62.29,102.236L61.788,102.921L61.23,103.588L60.616,104.235L59.948,104.862L59.228,105.468L58.457,106.054L57.638,106.617L56.773,107.158L55.862,107.673L54.909,108.165L53.914,108.632L52.879,109.073L51.806,109.486L50.696,109.872L49.551,110.228L48.373,110.555L47.164,110.851L45.925,111.117L44.659,111.349L43.365,111.549L42.047,111.714L40.707,111.844L39.345,111.938L37.963,111.995L36.563,112.014L35.164,111.995L33.782,111.938L32.421,111.844L31.08,111.714L29.762,111.549L28.469,111.349L27.202,111.117L25.962,110.851L24.754,110.555L23.576,110.228L22.432,109.872L21.322,109.486L20.249,109.073L19.214,108.632L18.218,108.165L17.264,107.673L16.354,107.157L15.489,106.617L14.67,106.054L13.899,105.468L13.179,104.862L12.511,104.235L11.897,103.588L11.338,102.921L10.838,102.236L10.397,101.533L10.018,100.814L9.701,100.078L9.453,99.328L9.272,98.564L9.163,97.788L9.125,97L9.163,96.214L9.272,95.438L9.453,94.675L9.701,93.924L10.018,93.189L10.397,92.469L10.838,91.766L11.338,91.081L11.897,90.415L12.511,89.768L13.179,89.141L13.899,88.534L14.67,87.949L15.489,87.386L16.354,86.845L17.264,86.328L18.218,85.837L19.214,85.37L20.249,84.93L21.322,84.516L22.432,84.131L23.576,83.775L24.754,83.447L25.962,83.15L27.202,82.886L28.469,82.653L29.761,82.454L31.079,82.288L32.421,82.158L33.782,82.064L35.164,82.007L36.563,81.987ZM46.812,87.183L47.302,87.245L47.787,87.315L48.268,87.394L48.742,87.482L49.211,87.578L49.673,87.682L50.13,87.796L50.58,87.917L51.024,88.045L51.459,88.182L51.89,88.327L52.312,88.478L52.726,88.639L53.133,88.805L53.532,88.979L53.923,89.16L54.305,89.347L54.678,89.541L55.044,89.743L55.399,89.951L55.745,90.165L56.082,90.386L56.409,90.613L56.726,90.845L57.033,91.083L58.167,92.018L58.089,91.931L57.57,91.416L57.002,90.915L56.387,90.427L55.726,89.955L55.021,89.498L54.273,89.06L53.484,88.638L52.657,88.237L51.79,87.855L50.888,87.494L49.95,87.154L48.98,86.837L47.978,86.543L46.946,86.273L45.885,86.028L44.797,85.81L43.684,85.617L42.548,85.453L41.389,85.316L40.21,85.208L39.011,85.13L37.795,85.083L36.563,85.066L35.332,85.083L34.116,85.13L32.918,85.208L31.738,85.316L30.58,85.453L29.443,85.617L28.33,85.81L27.242,86.028L26.182,86.273L25.15,86.543L24.148,86.837L23.177,87.154L22.24,87.494L21.337,87.855L20.471,88.237L19.642,88.638L18.854,89.059L18.106,89.498L17.402,89.955L16.74,90.427L16.125,90.915L15.557,91.416L15.038,91.931L14.568,92.457L14.15,92.995L13.784,93.544L13.472,94.1L13.215,94.666L13.013,95.239L12.867,95.819L12.778,96.407L12.748,97.001L12.777,97.579L12.861,98.151L12.999,98.716L13.19,99.274L13.434,99.824L13.73,100.367L14.076,100.902L14.472,101.427L14.918,101.943L15.411,102.446L15.95,102.938L16.534,103.416L17.162,103.881L17.832,104.33L18.543,104.764L18.743,104.875L18.743,90.287L19.375,89.929L19.837,89.683L20.314,89.444L20.805,89.211L21.312,88.986L21.832,88.768L22.367,88.559L22.914,88.356L23.476,88.162L24.048,87.976L24.634,87.798L25.232,87.628L25.841,87.467L26.461,87.315L27.092,87.172L28.182,86.942L28.182,93.592L28.423,93.241L28.726,92.848L29.052,92.463L29.403,92.089L29.775,91.725L30.169,91.372L30.584,91.03L31.019,90.7L31.474,90.381L31.948,90.075L32.441,89.78L32.951,89.499L33.478,89.23L34.024,88.976L34.584,88.734L35.16,88.508L35.75,88.295L36.356,88.098L36.974,87.915L37.606,87.748L38.25,87.597L38.906,87.463L39.572,87.345L40.25,87.244L40.937,87.161L41.634,87.096L42.34,87.048L43.054,87.019L43.773,87.009L44.292,87.015L44.804,87.03L45.312,87.054L45.816,87.087L46.317,87.131L46.812,87.183ZM59.168,93.282L56.462,91.679L56.015,91.438L55.551,91.211L55.069,90.996L54.571,90.797L54.058,90.612L53.529,90.442L52.986,90.287L52.431,90.15L51.862,90.029L51.281,89.925L50.69,89.838L50.088,89.771L49.477,89.722L48.857,89.692L48.228,89.681L47.585,89.693L46.949,89.724L46.323,89.776L45.706,89.846L45.101,89.937L44.507,90.047L43.926,90.173L43.358,90.318L42.805,90.479L42.267,90.658L41.745,90.852L41.238,91.061L40.75,91.285L40.279,91.523L39.829,91.775L39.398,92.039L38.988,92.316L38.599,92.605L38.233,92.905L37.89,93.215L37.571,93.536L37.276,93.865L37.007,94.203L36.764,94.548L36.548,94.902L36.358,95.262L36.196,95.629L36.061,96L35.956,96.378L35.88,96.761L35.834,97.149L35.818,97.542L35.834,97.935L35.88,98.323L35.956,98.706L36.061,99.084L36.196,99.457L36.358,99.823L36.547,100.183L36.764,100.536L37.008,100.882L37.277,101.22L37.571,101.55L37.89,101.87L38.233,102.181L38.599,102.48L38.988,102.769L39.397,103.045L39.829,103.31L40.279,103.562L40.749,103.8L41.238,104.024L41.745,104.233L42.267,104.427L42.805,104.605L43.358,104.767L43.926,104.912L44.507,105.039L45.101,105.148L45.706,105.238L46.323,105.31L46.948,105.36L47.585,105.392L48.228,105.402L48.873,105.392L49.509,105.36L50.136,105.309L50.752,105.238L51.358,105.147L51.951,105.038L52.532,104.91L53.1,104.764L53.654,104.603L54.192,104.424L54.715,104.23L55.221,104.02L55.71,103.795L56.179,103.557L56.63,103.305L57.041,103.052L57.417,102.725L57.787,102.376L58.135,102.022L58.458,101.661L58.759,101.296L59.034,100.925L59.285,100.549L59.511,100.17L59.712,99.786L59.886,99.399L60.035,99.008L60.157,98.613L60.254,98.215L60.322,97.814L60.364,97.409L60.377,97.004L60.348,96.406L60.259,95.819L60.114,95.239L59.912,94.666L59.654,94.1L59.342,93.543L59.168,93.282ZM42.34,108.444L41.634,108.397L40.937,108.331L40.251,108.248L39.572,108.147L38.906,108.029L38.25,107.895L37.606,107.744L36.974,107.577L36.356,107.395L35.75,107.197L35.16,106.985L34.584,106.758L34.023,106.516L33.478,106.261L32.951,105.993L32.441,105.711L31.948,105.417L31.474,105.11L31.019,104.791L30.584,104.462L30.169,104.12L29.774,103.766L29.403,103.402L29.052,103.028L28.726,102.643L28.423,102.249L28.182,101.9L28.182,108.163L28.389,108.202L28.901,108.294L29.42,108.381L29.943,108.461L30.471,108.535L31.004,108.603L31.541,108.665L32.084,108.721L32.63,108.771L33.181,108.814L33.735,108.85L34.294,108.88L34.856,108.905L35.422,108.921L35.991,108.932L36.563,108.935L36.976,108.933L37.385,108.928L37.795,108.919L38.201,108.907L38.606,108.892L39.009,108.872L39.41,108.85L39.809,108.823L40.207,108.795L40.601,108.762L40.993,108.726L41.384,108.686L41.772,108.644L42.158,108.599L42.541,108.55L42.922,108.498L43.094,108.473L43.054,108.473L42.34,108.444Z" style="fill:white;"/>
    </g>
    <g transform="matrix(0.999101,0,0,0.999101,-9.11679,-81.9133)">
        <path d="M72.268,106.041L72.268,88.353L76.758,88.353L76.758,94.108L84.727,88.353L92.356,88.353L85.012,93.657L92.066,106.041L85.926,106.041L80.661,96.798L76.758,99.617L76.758,106.041L72.268,106.041ZM101.026,106.041L101.026,98.595L93.178,88.353L98.894,88.389L103.406,94.277L107.919,88.389L113.634,88.353L105.815,98.62L105.815,106.041L101.026,106.041ZM114.904,106.041L114.904,88.353L121.878,88.353L125.944,100.17L130.01,88.353L137.308,88.353L137.308,106.041L132.528,106.041L132.528,93.561L128.234,106.041L123.654,106.041L119.683,94.501L119.683,106.041L114.904,106.041ZM173.454,87.899C179.536,87.899 184.498,92.182 184.498,97.432C184.498,102.684 179.536,106.967 173.454,106.967C167.37,106.967 162.409,102.684 162.409,97.432C162.409,92.182 167.37,87.899 173.454,87.899ZM173.454,92.317C176.754,92.317 179.451,94.613 179.451,97.432C179.451,100.252 176.754,102.549 173.454,102.549C170.153,102.549 167.456,100.252 167.456,97.432C167.456,94.613 170.153,92.317 173.454,92.317ZM150.418,87.899C155.521,87.899 159.833,90.912 161.091,94.982L155.679,94.982C154.658,93.395 152.681,92.317 150.418,92.317C147.118,92.317 144.421,94.613 144.421,97.432C144.421,100.252 147.118,102.549 150.418,102.549C152.766,102.549 154.806,101.386 155.79,99.7L161.145,99.7C159.961,103.863 155.596,106.967 150.418,106.967C144.336,106.967 139.374,102.684 139.374,97.432C139.374,92.182 144.336,87.899 150.418,87.899Z" style="fill:rgb(0,113,188);"/>
    </g>
    <g transform="matrix(0.999101,0,0,0.999101,-9.11679,-81.9133)">
        <path d="M36.563,82.362C51.468,82.362 63.625,88.938 63.625,97C63.625,105.063 51.468,111.639 36.563,111.639C21.657,111.639 9.501,105.063 9.501,97C9.501,88.938 21.657,82.362 36.563,82.362ZM43.774,87.384C49.224,87.384 54.071,89.051 57.086,91.613C54.785,90.186 51.662,89.307 48.228,89.307C41.184,89.307 35.443,93.006 35.443,97.542C35.443,102.077 41.184,105.777 48.228,105.777C51.752,105.777 54.948,104.848 57.264,103.354C59.476,101.497 60.753,99.323 60.753,97C60.753,90.221 49.886,84.691 36.563,84.691C23.239,84.691 12.373,90.221 12.373,97C12.373,100.298 14.944,103.298 19.117,105.511L19.117,90.506C21.409,89.163 24.39,88.09 27.808,87.404L27.808,95.058C29.704,90.647 36.15,87.384 43.774,87.384ZM48.743,107.626C47.174,107.938 45.504,108.107 43.774,108.107C36.15,108.107 29.704,104.843 27.808,100.431L27.808,108.472C30.525,109.012 33.477,109.31 36.563,109.31C40.999,109.31 45.162,108.695 48.743,107.626Z" style="fill:rgb(237,28,36);"/>
    </g>
</svg>
