<?xml version="1.0" encoding="UTF-8" standalone="no"?>
<!DOCTYPE svg PUBLIC "-//W3C//DTD SVG 1.1//EN" "http://www.w3.org/Graphics/SVG/1.1/DTD/svg11.dtd">
<svg width="100%" height="100%" viewBox="0 0 600 220" version="1.1" xmlns="http://www.w3.org/2000/svg" xmlns:xlink="http://www.w3.org/1999/xlink" xml:space="preserve" xmlns:serif="http://www.serif.com/" style="fill-rule:evenodd;clip-rule:evenodd;stroke-linejoin:round;stroke-miterlimit:2;">
    <g transform="matrix(0.821166,0,0,0.821166,338.686,109.974)">
        <path d="M0,-128.482L-58.438,-96.581C-58.438,-96.581 -75.838,-88.126 -81.412,-85.01C-88.511,-81.043 -89.044,-73.879 -89.044,-67.754L-89.044,0L-62.217,-14.358L-62.211,-68.507L-0.52,-101.923L0,-128.482" style="fill:rgb(8,167,157);fill-rule:nonzero;"/>
    </g>
    <g transform="matrix(0.821166,0,0,0.821166,373.237,77.5041)">
        <path d="M0,-79.216L-0.002,-79.113L-86.622,-33.421L-86.584,15.167L-59.741,1.012L-59.793,-20.591L-42.335,-29.76L-42.37,-8.075L-15.543,-22.216L-15.502,-43.925L1.894,-53.466L1.894,-26.403L-17.668,-16.05L-17.668,10.95C-17.668,10.95 -0.67,1.866 10.546,-4.163C21.763,-10.193 28.55,-15.549 28.55,-31.551C28.55,-42.051 28.72,-40.217 28.72,-40.217L28.749,-94.383L0,-79.216" style="fill:rgb(64,63,65);fill-rule:nonzero;"/>
    </g>
    <g transform="matrix(0.821166,0,0,0.821166,51.0199,205.421)">
        <path d="M0,-85.569C0,-85.569 -15.464,-70.501 -15.575,-70.501L-41.816,-70.501L-41.816,-17.165C-42.155,-16.465 -62.131,0 -62.131,0L-62.131,-73.776C-62.131,-75.173 -61.793,-76.571 -61.116,-77.97C-60.439,-79.366 -59.507,-80.633 -58.323,-81.768C-57.137,-82.903 -55.756,-83.821 -54.174,-84.52C-52.595,-85.22 -50.847,-85.569 -48.926,-85.569L0,-85.569" style="fill:rgb(64,63,65);fill-rule:nonzero;"/>
    </g>
    <g transform="matrix(0.821166,0,0,0.821166,100.788,147.635)">
        <path d="M-36.229,31.055L0,31.055L0,-0.392L-36.229,-0.392L-36.229,31.055ZM-56.545,-6.158C-56.545,-6.767 -56.179,-7.6 -55.444,-8.647C-54.712,-9.695 -53.836,-10.699 -52.821,-11.662C-51.804,-12.621 -50.678,-13.473 -49.434,-14.217C-48.194,-14.957 -47.064,-15.33 -46.049,-15.33L9.481,-15.33C10.608,-15.33 11.822,-15.002 13.12,-14.348C14.417,-13.691 15.602,-12.906 16.676,-11.988C17.747,-11.071 18.622,-10.089 19.3,-9.041C19.977,-7.992 20.316,-7.03 20.316,-6.158L20.316,35.772C20.316,36.472 20.003,37.432 19.384,38.654C18.763,39.879 17.945,41.059 16.93,42.191C15.914,43.328 14.784,44.311 13.544,45.141C12.301,45.971 11.116,46.385 9.989,46.385L-46.217,46.385C-47.461,46.385 -48.673,45.971 -49.858,45.141C-51.043,44.311 -52.143,43.328 -53.159,42.191C-54.174,41.059 -54.995,39.879 -55.613,38.654C-56.235,37.432 -56.545,36.472 -56.545,35.772L-56.545,-6.158" style="fill:rgb(64,63,65);fill-rule:nonzero;"/>
    </g>
    <g transform="matrix(0.821166,0,0,0.821166,178.777,166.68)">
        <path d="M0,-15.2C1.805,-15.2 3.526,-14.873 5.164,-14.216C6.799,-13.562 8.211,-12.687 9.396,-11.596C10.581,-10.503 11.539,-9.281 12.274,-7.927C13.007,-6.572 13.374,-5.197 13.374,-3.8L13.374,11.399C13.374,12.797 13.036,14.196 12.359,15.592C11.682,16.991 10.751,18.258 9.565,19.393C8.38,20.529 6.968,21.446 5.333,22.143C3.696,22.844 1.974,23.192 0.169,23.192L-63.824,23.192C-63.824,23.192 -48.542,8.123 -48.249,8.123L-6.941,8.123L-6.941,-0.13L-50.619,-0.13C-52.54,-0.13 -54.288,-0.459 -55.867,-1.114C-57.449,-1.769 -58.83,-2.621 -60.015,-3.669C-61.2,-4.717 -62.131,-5.918 -62.809,-7.273C-63.485,-8.626 -63.824,-10.002 -63.824,-11.4L-63.824,-26.599C-63.824,-27.996 -63.485,-29.394 -62.809,-30.793C-62.131,-32.189 -61.2,-33.456 -60.015,-34.591C-58.83,-35.726 -57.449,-36.644 -55.867,-37.343C-54.288,-38.043 -52.54,-38.392 -50.619,-38.392L13.374,-38.392C13.374,-38.392 -2.089,-23.324 -2.2,-23.324L-43.509,-23.324L-43.509,-15.2L0,-15.2" style="fill:rgb(64,63,65);fill-rule:nonzero;"/>
    </g>
    <g transform="matrix(0.821166,0,0,0.821166,243.281,170.877)">
        <path d="M0,-25.42C0,-25.944 -0.085,-26.576 -0.255,-27.32C-0.424,-28.061 -0.961,-28.434 -1.863,-28.434L-34.029,-28.434L-34.029,-8.123L-18.792,-20.178L-1.863,-20.178C-1.075,-20.178 -0.566,-20.527 -0.339,-21.227C-0.114,-21.925 0,-22.58 0,-23.192L0,-25.42ZM-34.029,-5.11L-34.029,3.013L22.516,3.013C22.516,3.013 6.713,18.082 6.602,18.082L-42.662,18.082C-43.906,18.082 -45.202,17.754 -46.557,17.099C-47.911,16.444 -49.154,15.658 -50.281,14.741C-51.41,13.824 -52.37,12.841 -53.159,11.793C-53.95,10.744 -54.345,9.785 -54.345,8.91L-54.345,-34.33C-54.345,-35.202 -53.921,-36.185 -53.075,-37.278C-52.228,-38.369 -51.212,-39.374 -50.028,-40.291C-48.842,-41.209 -47.572,-41.973 -46.218,-42.584C-44.864,-43.195 -43.623,-43.502 -42.493,-43.502L8.295,-43.502C9.76,-43.502 11.199,-43.217 12.612,-42.651C14.022,-42.08 15.292,-41.361 16.421,-40.488C17.548,-39.614 18.453,-38.631 19.131,-37.539C19.807,-36.446 20.146,-35.378 20.146,-34.33L20.146,-14.676C20.146,-13.713 19.807,-12.664 19.131,-11.53C18.453,-10.395 17.607,-9.346 16.591,-8.386C15.575,-7.424 14.474,-6.637 13.289,-6.028C12.104,-5.415 11.004,-5.11 9.988,-5.11L-34.029,-5.11" style="fill:rgb(64,63,65);fill-rule:nonzero;"/>
    </g>
    <g transform="matrix(0.821166,0,0,0.821166,285.264,149.25)">
        <path d="M0,28.432L-20.316,45.598L-20.316,-6.553C-20.316,-7.25 -20.007,-8.211 -19.385,-9.436C-18.766,-10.657 -17.946,-11.837 -16.93,-12.973C-15.914,-14.108 -14.814,-15.09 -13.629,-15.921C-12.444,-16.75 -11.232,-17.166 -9.989,-17.166L46.217,-17.166C47.344,-17.166 48.529,-16.75 49.773,-15.921C51.013,-15.09 52.142,-14.108 53.158,-12.973C54.174,-11.837 54.992,-10.657 55.613,-9.436C56.232,-8.211 56.545,-7.25 56.545,-6.553L56.545,44.418L36.229,44.418L36.229,-1.836L0,-1.836L0,28.432" style="fill:rgb(64,63,65);fill-rule:nonzero;"/>
    </g>
    <g transform="matrix(0.821166,0,0,0.821166,357.275,143.873)">
        <path d="M0,4.588L0,36.028L36.23,36.028L36.23,4.581L0,4.588ZM-20.315,-34.204L1.889,-46.378C1.889,-46.378 1.643,-10.749 1.693,-10.749L46.218,-10.749C47.345,-10.749 48.529,-10.333 49.773,-9.505C51.014,-8.673 52.143,-7.69 53.159,-6.556C54.175,-5.42 54.992,-4.241 55.613,-3.019C56.232,-1.794 56.545,-0.834 56.545,-0.136L56.545,41.794C56.545,42.669 56.206,43.628 55.529,44.677C54.852,45.725 53.977,46.708 52.905,47.625C51.831,48.542 50.647,49.328 49.35,49.983C48.051,50.638 46.837,50.966 45.71,50.966L-9.819,50.966C-10.835,50.966 -11.965,50.596 -13.205,49.853C-14.448,49.111 -15.575,48.259 -16.591,47.298C-17.607,46.337 -18.482,45.331 -19.215,44.283C-19.95,43.235 -20.315,42.406 -20.315,41.794L-20.315,-34.204" style="fill:rgb(64,63,65);fill-rule:nonzero;"/>
    </g>
    <g transform="matrix(0.821166,0,0,0.821166,457.229,170.877)">
        <path d="M0,-25.42C0,-25.944 -0.084,-26.576 -0.254,-27.32C-0.423,-28.061 -0.96,-28.434 -1.863,-28.434L-34.029,-28.434L-34.029,-8.123L-18.792,-20.178L-1.863,-20.178C-1.074,-20.178 -0.566,-20.527 -0.339,-21.227C-0.114,-21.925 0,-22.58 0,-23.192L0,-25.42ZM-34.029,-5.11L-34.029,3.013L22.516,3.013C22.516,3.013 6.714,18.082 6.602,18.082L-42.662,18.082C-43.906,18.082 -45.201,17.754 -46.556,17.099C-47.91,16.444 -49.154,15.658 -50.281,14.741C-51.41,13.824 -52.37,12.841 -53.159,11.793C-53.949,10.744 -54.344,9.785 -54.344,8.91L-54.344,-34.33C-54.344,-35.202 -53.921,-36.185 -53.074,-37.278C-52.228,-38.369 -51.212,-39.374 -50.027,-40.291C-48.841,-41.209 -47.572,-41.973 -46.218,-42.584C-44.864,-43.195 -43.622,-43.502 -42.493,-43.502L8.296,-43.502C9.76,-43.502 11.2,-43.217 12.612,-42.651C14.022,-42.08 15.292,-41.361 16.422,-40.488C17.549,-39.614 18.454,-38.631 19.131,-37.539C19.807,-36.446 20.146,-35.378 20.146,-34.33L20.146,-14.676C20.146,-13.713 19.807,-12.664 19.131,-11.53C18.454,-10.395 17.606,-9.346 16.591,-8.386C15.575,-7.424 14.475,-6.637 13.29,-6.028C12.104,-5.415 11.005,-5.11 9.989,-5.11L-34.029,-5.11" style="fill:rgb(64,63,65);fill-rule:nonzero;"/>
    </g>
    <g transform="matrix(0.821166,0,0,0.821166,533.55,185.832)">
        <path d="M0,-61.715C0,-61.715 -15.465,-46.647 -15.576,-46.647L-41.816,-46.647L-41.816,-17.164L-62.132,0L-62.132,-49.922C-62.132,-51.319 -61.793,-52.717 -61.115,-54.116C-60.438,-55.512 -59.508,-56.779 -58.322,-57.914C-57.138,-59.049 -55.757,-59.967 -54.175,-60.666C-52.596,-61.366 -50.847,-61.715 -48.926,-61.715L0,-61.715" style="fill:rgb(64,63,65);fill-rule:nonzero;"/>
    </g>
    <g transform="matrix(0.821166,0,0,0.821166,583.318,167.003)">
        <path d="M-36.23,7.469L0,7.469L0,-23.848L-36.23,-23.848L-36.23,7.469ZM0,11.006L-14.73,22.799L-46.218,22.799C-47.461,22.799 -48.703,22.385 -49.943,21.555C-51.186,20.725 -52.287,19.742 -53.244,18.605C-54.205,17.473 -54.996,16.293 -55.615,15.068C-56.236,13.846 -56.545,12.886 -56.545,12.186L-56.545,-29.613C-56.545,-30.485 -56.207,-31.447 -55.53,-32.496C-54.853,-33.544 -53.98,-34.527 -52.906,-35.443C-51.833,-36.361 -50.678,-37.146 -49.435,-37.803C-48.195,-38.457 -46.954,-38.785 -45.71,-38.785L9.819,-38.785C10.835,-38.785 11.961,-38.457 13.205,-37.803C14.445,-37.146 15.575,-36.361 16.59,-35.443C17.606,-34.527 18.479,-33.544 19.214,-32.496C19.948,-31.447 20.315,-30.485 20.315,-29.613L20.315,35.772C20.315,36.906 20.061,38.084 19.553,39.309C19.045,40.531 18.338,41.668 17.437,42.716C16.532,43.764 15.46,44.615 14.22,45.271C12.977,45.926 11.622,46.254 10.157,46.254L-60.097,46.254L-46.553,31.316L0,31.316L0,11.006" style="fill:rgb(64,63,65);fill-rule:nonzero;"/>
    </g>
    <g transform="matrix(0.821166,0,0,0.821166,89.8643,219.303)">
        <path d="M0,-21.879L7.934,-7.53L15.898,-21.879L26.59,-21.879L26.59,0L20.082,0L20.082,-16.548L10.506,0L5.145,0L-4.401,-16.641L-4.401,0L-10.816,0L-10.816,-21.879L0,-21.879" style="fill:rgb(8,167,157);fill-rule:nonzero;"/>
    </g>
    <g transform="matrix(0.821166,0,0,0.821166,142.038,205.56)">
        <path d="M0,11.562C1.425,11.437 2.727,11.314 3.408,10.136C3.687,9.671 3.811,9.206 3.935,8.151L3.935,3.41C3.904,2.915 3.873,2.542 3.718,2.077C3.192,0.343 1.921,0.188 0.186,0.064L-9.174,0.064C-10.692,0.156 -11.281,0.343 -11.901,0.808C-12.335,1.117 -12.521,1.427 -12.614,1.612C-12.862,2.077 -12.954,2.667 -12.986,2.821C-13.078,3.597 -13.11,4.775 -13.14,6.479C-13.078,8.338 -12.954,9.671 -12.459,10.384C-11.901,11.158 -10.785,11.405 -8.926,11.562L0,11.562ZM-19.741,0.993C-19.71,0.652 -19.648,0.312 -19.587,-0.03C-19.245,-1.733 -18.44,-3.19 -16.89,-4.089C-15.743,-4.77 -14.69,-4.957 -13.388,-5.143C-10.723,-5.298 -8.058,-5.422 -5.362,-5.422C-2.201,-5.422 0.96,-5.298 4.153,-5.143C4.493,-5.112 4.834,-5.05 5.175,-4.988C6.074,-4.833 8.336,-4.399 9.669,-2.044C10.444,-0.618 10.568,0.776 10.66,2.357C10.722,3.937 10.784,5.487 10.722,7.068C10.691,8.09 10.598,9.112 10.536,10.167C10.32,11.778 10.103,13.048 9.018,14.381C7.344,16.427 4.772,16.706 2.355,16.892C0.186,16.923 -2.015,16.984 -4.215,16.984C-6.725,16.984 -9.204,16.923 -11.715,16.86C-13.667,16.736 -15.558,16.612 -17.262,15.435C-19.896,13.607 -19.958,10.197 -19.958,7.408L-19.741,0.993" style="fill:rgb(8,167,157);fill-rule:nonzero;"/>
    </g>
    <g transform="matrix(0.821166,0,0,0.821166,185.405,219.303)">
        <path d="M0,-21.879L0,-16.828L-9.855,-16.828L-9.855,0L-16.735,0L-16.735,-16.796L-26.404,-16.796L-26.404,-21.879L0,-21.879" style="fill:rgb(8,167,157);fill-rule:nonzero;"/>
    </g>
    <g transform="matrix(0.821166,0,0,0.821166,214.368,205.56)">
        <path d="M0,11.562C1.425,11.437 2.727,11.314 3.408,10.136C3.687,9.671 3.811,9.206 3.935,8.151L3.935,3.41C3.905,2.915 3.873,2.542 3.718,2.077C3.192,0.343 1.921,0.188 0.186,0.064L-9.174,0.064C-10.692,0.156 -11.281,0.343 -11.901,0.808C-12.335,1.117 -12.521,1.427 -12.614,1.612C-12.862,2.077 -12.954,2.667 -12.986,2.821C-13.078,3.597 -13.11,4.775 -13.14,6.479C-13.078,8.338 -12.954,9.671 -12.459,10.384C-11.901,11.158 -10.785,11.405 -8.926,11.562L0,11.562ZM-19.741,0.993C-19.71,0.652 -19.648,0.312 -19.587,-0.03C-19.245,-1.733 -18.44,-3.19 -16.89,-4.089C-15.743,-4.77 -14.69,-4.957 -13.388,-5.143C-10.723,-5.298 -8.058,-5.422 -5.362,-5.422C-2.201,-5.422 0.96,-5.298 4.153,-5.143C4.493,-5.112 4.834,-5.05 5.175,-4.988C6.074,-4.833 8.336,-4.399 9.669,-2.044C10.444,-0.618 10.568,0.776 10.66,2.357C10.722,3.937 10.784,5.487 10.722,7.068C10.691,8.09 10.598,9.112 10.536,10.167C10.32,11.778 10.103,13.048 9.018,14.381C7.344,16.427 4.772,16.706 2.355,16.892C0.186,16.923 -2.015,16.984 -4.215,16.984C-6.725,16.984 -9.204,16.923 -11.715,16.86C-13.667,16.736 -15.558,16.612 -17.262,15.435C-19.896,13.607 -19.958,10.197 -19.958,7.408L-19.741,0.993" style="fill:rgb(8,167,157);fill-rule:nonzero;"/>
    </g>
    <g transform="matrix(0.821166,0,0,0.821166,242.949,210.192)">
        <path d="M0,0.094L10.723,0.094C11.994,0.094 12.83,0.032 13.357,-0.247C14.349,-0.805 14.38,-2.386 14.38,-2.54C14.38,-2.696 14.38,-4.09 13.791,-4.802C13.265,-5.423 12.304,-5.485 11.312,-5.546L0,-5.546L0,0.094ZM12.986,-10.784C15.217,-10.907 17.386,-11.001 19.122,-9.607C19.71,-9.142 20.082,-8.583 20.206,-8.366C21.136,-6.755 21.105,-4.307 21.105,-3.997C21.105,-3.781 21.105,-1.735 20.671,-0.37C20.609,-0.216 20.423,0.249 20.144,0.621C19.091,2.139 16.983,2.51 15.372,2.79C17.169,2.79 18.936,2.821 19.99,4.184C20.764,5.145 20.764,6.137 20.764,7.284L20.764,11.095L13.977,11.095L13.977,8.151C13.977,7.563 13.946,6.973 13.605,6.416C13.11,5.703 12.304,5.61 11.436,5.517L-0.03,5.517L-0.03,11.095L-6.879,11.095L-6.879,-10.784L12.986,-10.784" style="fill:rgb(8,167,157);fill-rule:nonzero;"/>
    </g>
    <g transform="matrix(0.821166,0,0,0.821166,291.584,212.915)">
        <path d="M0,-6.352C0,-7.003 0,-7.499 -0.464,-8.057C-0.991,-8.708 -1.828,-8.769 -2.727,-8.862C-3.998,-8.925 -5.299,-8.987 -6.601,-8.987C-7.964,-8.987 -9.297,-8.956 -10.691,-8.893C-11.032,-8.893 -11.404,-8.862 -11.745,-8.831C-12.303,-8.769 -13.853,-8.583 -14.348,-6.88C-14.534,-6.228 -14.596,-4.927 -14.596,-3.315L-14.596,-1.704C-14.565,-0.495 -14.534,0.807 -13.667,1.581C-12.675,2.48 -11.064,2.511 -10.784,2.542L-2.758,2.542C-2.634,2.511 -1.085,2.48 -0.402,1.675C0.062,1.148 0.093,0.311 0.155,-0.495L6.818,-0.495C6.818,0.155 6.787,0.807 6.756,1.488C6.694,3.378 6.508,5.177 4.959,6.415C3.75,7.407 2.387,7.593 0.93,7.81C-1.425,7.966 -3.78,8.058 -6.136,8.058C-8.708,8.058 -11.28,7.996 -13.853,7.903C-15.867,7.593 -17.881,7.284 -19.276,5.982C-20.67,4.681 -20.918,3.255 -21.135,1.457C-21.259,-0.061 -21.383,-1.61 -21.383,-3.16C-21.383,-4.772 -21.259,-6.352 -21.166,-7.964C-20.98,-9.421 -20.763,-10.473 -19.834,-11.651C-18.16,-13.636 -15.526,-13.945 -14.813,-14.069C-12.303,-14.255 -9.762,-14.41 -7.22,-14.41C-4.648,-14.41 -2.076,-14.286 0.496,-14.192C2.046,-13.945 3.595,-13.697 4.835,-12.55C6.478,-11.032 6.508,-8.336 6.54,-6.321L0,-6.352" style="fill:rgb(8,167,157);fill-rule:nonzero;"/>
    </g>
    <g transform="matrix(0.821166,0,0,0.821166,322.532,211.974)">
        <path d="M0,-4.029L7.375,-12.954L16.116,-12.954L3.471,1.27L3.471,8.925L-3.378,8.925L-3.378,1.27L-15.805,-12.954L-7.345,-12.954L0,-4.029" style="fill:rgb(8,167,157);fill-rule:nonzero;"/>
    </g>
    <g transform="matrix(0.821166,0,0,0.821166,365.492,212.915)">
        <path d="M0,-6.352C0,-7.003 0,-7.499 -0.465,-8.057C-0.991,-8.708 -1.829,-8.769 -2.728,-8.862C-3.998,-8.925 -5.3,-8.987 -6.601,-8.987C-7.965,-8.987 -9.298,-8.956 -10.693,-8.893C-11.032,-8.893 -11.405,-8.862 -11.745,-8.831C-12.304,-8.769 -13.853,-8.583 -14.349,-6.88C-14.534,-6.228 -14.597,-4.927 -14.597,-3.315L-14.597,-1.704C-14.566,-0.495 -14.534,0.807 -13.667,1.581C-12.675,2.48 -11.064,2.511 -10.784,2.542L-2.759,2.542C-2.634,2.511 -1.085,2.48 -0.403,1.675C0.061,1.148 0.093,0.311 0.155,-0.495L6.817,-0.495C6.817,0.155 6.786,0.807 6.756,1.488C6.694,3.378 6.508,5.177 4.958,6.415C3.749,7.407 2.386,7.593 0.93,7.81C-1.426,7.966 -3.78,8.058 -6.136,8.058C-8.708,8.058 -11.28,7.996 -13.853,7.903C-15.867,7.593 -17.882,7.284 -19.276,5.982C-20.671,4.681 -20.919,3.255 -21.136,1.457C-21.26,-0.061 -21.384,-1.61 -21.384,-3.16C-21.384,-4.772 -21.26,-6.352 -21.167,-7.964C-20.982,-9.421 -20.764,-10.473 -19.834,-11.651C-18.161,-13.636 -15.526,-13.945 -14.814,-14.069C-12.304,-14.255 -9.763,-14.41 -7.221,-14.41C-4.65,-14.41 -2.077,-14.286 0.495,-14.192C2.046,-13.945 3.595,-13.697 4.835,-12.55C6.477,-11.032 6.508,-8.336 6.539,-6.321L0,-6.352" style="fill:rgb(8,167,157);fill-rule:nonzero;"/>
    </g>
    <g transform="matrix(0.821166,0,0,0.821166,390.713,219.303)">
        <path d="M0,-21.879L0,-5.422L15.124,-5.422L15.124,0L-6.848,0L-6.848,-21.879L0,-21.879" style="fill:rgb(8,167,157);fill-rule:nonzero;"/>
    </g>
    <g transform="matrix(0.821166,0,0,0.821166,436.574,219.303)">
        <path d="M0,-21.879L0,-17.044L-17.788,-17.044L-17.788,-13.387L-0.96,-13.387L-0.96,-8.801L-17.788,-8.801L-17.788,-4.958L0,-4.958L0,0L-24.452,0L-24.452,-21.879L0,-21.879" style="fill:rgb(8,167,157);fill-rule:nonzero;"/>
    </g>
    <g transform="matrix(0.821166,0,0,0.821166,456.198,207.19)">
        <path d="M0,7.592C0,8.088 0,8.491 0.154,8.864C0.402,9.577 1.053,9.855 2.478,9.979C3.873,10.041 5.236,10.103 6.631,10.133C8.119,10.165 9.606,10.103 11.125,10.072C11.342,10.072 12.303,10.165 12.984,9.885C13.666,9.638 14.256,8.956 14.256,8.212C14.256,8.026 14.224,7.655 13.945,7.252C13.418,6.508 12.736,6.54 11.187,6.323C7.964,6.26 4.741,6.229 1.549,6.043C0.526,5.981 -0.496,5.888 -1.52,5.827C-1.829,5.764 -2.17,5.733 -2.481,5.671C-2.914,5.61 -4.432,5.362 -5.486,4.215C-6.168,3.471 -6.787,2.138 -6.787,-0.093C-6.787,-0.248 -6.787,-2.634 -6.23,-4.029C-6.013,-4.556 -5.703,-5.021 -5.331,-5.423C-4.061,-6.787 -2.387,-7.003 -0.559,-7.22C1.828,-7.314 4.215,-7.407 6.6,-7.407C9.234,-7.407 11.869,-7.251 14.503,-7.128L15.712,-6.942C16.177,-6.88 17.695,-6.601 18.873,-5.517C20.39,-4.122 20.39,-2.169 20.329,-0.248L13.697,-0.279C13.295,-1.953 12.984,-2.169 11.219,-2.355C9.606,-2.449 7.964,-2.51 6.352,-2.51C5.082,-2.51 3.842,-2.449 2.572,-2.417C1.734,-2.386 0.96,-2.355 0.433,-1.673C0.34,-1.55 0.061,-1.146 0.061,-0.681C0.061,-0.216 0.309,0.155 0.433,0.279C1.021,1.022 1.765,1.053 2.602,1.116L15.742,1.581C17.54,1.766 18.222,2.014 18.996,2.573C20.112,3.377 21.103,4.803 21.103,7.996C21.103,10.475 20.67,11.653 19.988,12.614C19.709,12.985 19.461,13.264 19.09,13.543C18.066,14.287 16.734,14.503 15.371,14.721C12.675,14.875 10.01,14.999 7.313,14.999C4.4,14.999 1.486,14.813 -1.457,14.659C-2.914,14.442 -4.557,14.163 -5.641,12.985C-6.881,11.653 -6.85,9.204 -6.85,7.561L0,7.592" style="fill:rgb(8,167,157);fill-rule:nonzero;"/>
    </g>
    <g transform="matrix(0.821166,0,0,0.821166,340.321,83.4124)">
        <path d="M0,15.714L0,-11.536L-22.166,0.38L-22.166,27.25" style="fill:rgb(88,89,91);fill-rule:nonzero;"/>
    </g>
    <g transform="matrix(0.821166,0,0,0.821166,304.087,102.505)">
        <path d="M0,15.714L0,-11.536L-22.166,0.38L-22.166,27.25" style="fill:rgb(128,130,133);fill-rule:nonzero;"/>
    </g>
</svg>
