<?xml version="1.0" encoding="UTF-8" standalone="no"?>
<!DOCTYPE svg PUBLIC "-//W3C//DTD SVG 1.1//EN" "http://www.w3.org/Graphics/SVG/1.1/DTD/svg11.dtd">
<svg width="100%" height="100%" viewBox="0 0 600 220" version="1.1" xmlns="http://www.w3.org/2000/svg" xmlns:xlink="http://www.w3.org/1999/xlink" xml:space="preserve" xmlns:serif="http://www.serif.com/" style="fill-rule:evenodd;clip-rule:evenodd;stroke-linejoin:round;stroke-miterlimit:2;">
    <g transform="matrix(0.821167,0,0,0.821167,-39.3025,-110.521)">
        <g transform="matrix(30,0,0,30,158.683,401.654)">
            <path d="M0.07,-0.706L0.07,-0L0.293,-0L0.293,-0.177L0.659,-0.177C0.719,-0.177 0.804,-0.178 0.857,-0.218C0.935,-0.278 0.929,-0.427 0.929,-0.434C0.929,-0.452 0.928,-0.469 0.927,-0.487C0.925,-0.547 0.922,-0.596 0.88,-0.644C0.851,-0.678 0.814,-0.703 0.721,-0.706C0.702,-0.707 0.682,-0.707 0.662,-0.706L0.07,-0.706ZM0.619,-0.538C0.646,-0.535 0.673,-0.532 0.689,-0.515C0.711,-0.493 0.712,-0.444 0.712,-0.441C0.712,-0.416 0.705,-0.4 0.7,-0.389C0.681,-0.351 0.651,-0.349 0.608,-0.35L0.292,-0.35L0.292,-0.538L0.619,-0.538Z" style="fill:rgb(255,210,1);fill-rule:nonzero;"/>
        </g>
        <g transform="matrix(30,0,0,30,197.663,401.654)">
            <path d="M0.053,-0.301C0.053,-0.211 0.055,-0.101 0.14,-0.042C0.195,-0.004 0.256,-0 0.319,0.004C0.4,0.006 0.48,0.008 0.561,0.008C0.632,0.008 0.703,0.006 0.773,0.005C0.851,-0.001 0.934,-0.01 0.988,-0.076C1.023,-0.119 1.03,-0.16 1.037,-0.212C1.039,-0.246 1.042,-0.279 1.043,-0.312C1.045,-0.363 1.043,-0.413 1.041,-0.464C1.038,-0.515 1.034,-0.56 1.009,-0.606C0.966,-0.682 0.893,-0.696 0.864,-0.701C0.853,-0.703 0.842,-0.705 0.831,-0.706C0.728,-0.711 0.626,-0.715 0.524,-0.715C0.437,-0.715 0.351,-0.711 0.265,-0.706C0.223,-0.7 0.189,-0.694 0.152,-0.672C0.102,-0.643 0.076,-0.596 0.065,-0.541C0.063,-0.53 0.061,-0.519 0.06,-0.508L0.053,-0.301ZM0.409,-0.167C0.349,-0.172 0.313,-0.18 0.295,-0.205C0.279,-0.228 0.275,-0.271 0.273,-0.331C0.274,-0.386 0.275,-0.424 0.278,-0.449C0.279,-0.454 0.282,-0.473 0.29,-0.488C0.293,-0.494 0.299,-0.504 0.313,-0.514C0.333,-0.529 0.352,-0.535 0.401,-0.538L0.703,-0.538C0.759,-0.534 0.8,-0.529 0.817,-0.473C0.822,-0.458 0.823,-0.446 0.824,-0.43L0.824,-0.277C0.82,-0.243 0.816,-0.228 0.807,-0.213C0.785,-0.175 0.743,-0.171 0.697,-0.167L0.409,-0.167Z" style="fill:rgb(255,210,1);fill-rule:nonzero;"/>
        </g>
        <g transform="matrix(30,0,0,30,241.023,401.654)">
            <path d="M0.434,-0.176C0.406,-0.246 0.377,-0.317 0.349,-0.387C0.307,-0.493 0.267,-0.6 0.226,-0.706L0.004,-0.706L0.291,-0L0.58,-0L0.746,-0.503L0.904,-0L1.192,-0C1.237,-0.102 1.281,-0.205 1.323,-0.308C1.356,-0.391 1.388,-0.474 1.423,-0.556C1.436,-0.587 1.45,-0.617 1.464,-0.647C1.473,-0.667 1.483,-0.686 1.493,-0.706L1.267,-0.706L1.055,-0.176L0.882,-0.706L0.615,-0.706L0.434,-0.176Z" style="fill:rgb(255,210,1);fill-rule:nonzero;"/>
        </g>
        <g transform="matrix(30,0,0,30,296.263,401.654)">
            <path d="M0.073,-0.705L0.073,-0L0.862,-0L0.862,-0.16L0.288,-0.16L0.288,-0.284L0.831,-0.284L0.831,-0.432L0.288,-0.432L0.288,-0.549L0.862,-0.549L0.862,-0.705L0.073,-0.705Z" style="fill:rgb(255,210,1);fill-rule:nonzero;"/>
        </g>
        <g transform="matrix(30,0,0,30,336.223,401.654)">
            <path d="M0.073,-0.706L0.073,-0L0.294,-0L0.294,-0.18L0.664,-0.18C0.692,-0.177 0.718,-0.174 0.734,-0.151C0.745,-0.133 0.746,-0.114 0.746,-0.095L0.746,-0L0.965,-0L0.965,-0.123C0.965,-0.16 0.965,-0.192 0.94,-0.223C0.906,-0.267 0.849,-0.268 0.791,-0.268C0.843,-0.277 0.911,-0.289 0.945,-0.338C0.954,-0.35 0.96,-0.365 0.962,-0.37C0.976,-0.414 0.976,-0.48 0.976,-0.487C0.976,-0.497 0.977,-0.576 0.947,-0.628C0.943,-0.635 0.931,-0.653 0.912,-0.668C0.856,-0.713 0.786,-0.71 0.714,-0.706L0.073,-0.706ZM0.295,-0.537L0.66,-0.537C0.692,-0.535 0.723,-0.533 0.74,-0.513C0.759,-0.49 0.759,-0.445 0.759,-0.44C0.759,-0.435 0.758,-0.384 0.726,-0.366C0.709,-0.357 0.682,-0.355 0.641,-0.355L0.295,-0.355L0.295,-0.537Z" style="fill:rgb(255,210,1);fill-rule:nonzero;"/>
        </g>
        <g transform="matrix(30,0,0,30,378.523,401.654)">
            <path d="M0.054,-0.232C0.054,-0.179 0.053,-0.1 0.093,-0.057C0.128,-0.019 0.181,-0.01 0.228,-0.003C0.323,0.002 0.417,0.008 0.511,0.008C0.598,0.008 0.684,0.004 0.771,-0.001C0.815,-0.008 0.858,-0.015 0.891,-0.039C0.903,-0.048 0.911,-0.057 0.92,-0.069C0.942,-0.1 0.956,-0.138 0.956,-0.218C0.956,-0.321 0.924,-0.367 0.888,-0.393C0.863,-0.411 0.841,-0.419 0.783,-0.425L0.359,-0.44C0.332,-0.442 0.308,-0.443 0.289,-0.467C0.285,-0.471 0.277,-0.483 0.277,-0.498C0.277,-0.513 0.286,-0.526 0.289,-0.53C0.306,-0.552 0.331,-0.553 0.358,-0.554C0.399,-0.555 0.439,-0.557 0.48,-0.557C0.532,-0.557 0.585,-0.555 0.637,-0.552C0.694,-0.546 0.704,-0.539 0.717,-0.485L0.931,-0.484C0.933,-0.546 0.933,-0.609 0.884,-0.654C0.846,-0.689 0.797,-0.698 0.782,-0.7L0.743,-0.706C0.658,-0.71 0.573,-0.715 0.488,-0.715C0.411,-0.715 0.334,-0.712 0.257,-0.709C0.198,-0.702 0.144,-0.695 0.103,-0.651C0.091,-0.638 0.081,-0.623 0.074,-0.606C0.056,-0.561 0.056,-0.484 0.056,-0.479C0.056,-0.407 0.076,-0.364 0.098,-0.34C0.132,-0.303 0.181,-0.295 0.195,-0.293C0.205,-0.291 0.216,-0.29 0.226,-0.288C0.259,-0.286 0.292,-0.283 0.325,-0.281C0.428,-0.275 0.532,-0.274 0.636,-0.272C0.686,-0.265 0.708,-0.266 0.725,-0.242C0.734,-0.229 0.735,-0.217 0.735,-0.211C0.735,-0.187 0.716,-0.165 0.694,-0.157C0.672,-0.148 0.641,-0.151 0.634,-0.151C0.585,-0.15 0.537,-0.148 0.489,-0.149C0.444,-0.15 0.4,-0.152 0.355,-0.154C0.309,-0.158 0.288,-0.167 0.28,-0.19C0.275,-0.202 0.275,-0.215 0.275,-0.231L0.054,-0.232Z" style="fill:rgb(255,210,1);fill-rule:nonzero;"/>
        </g>
        <g transform="matrix(30,0,0,30,419.443,401.654)">
            <path d="M0.07,-0.706L0.07,-0L0.293,-0L0.293,-0.177L0.659,-0.177C0.719,-0.177 0.804,-0.178 0.857,-0.218C0.935,-0.278 0.929,-0.427 0.929,-0.434C0.929,-0.452 0.928,-0.469 0.927,-0.487C0.925,-0.547 0.922,-0.596 0.88,-0.644C0.851,-0.678 0.814,-0.703 0.721,-0.706C0.702,-0.707 0.682,-0.707 0.662,-0.706L0.07,-0.706ZM0.619,-0.538C0.646,-0.535 0.673,-0.532 0.689,-0.515C0.711,-0.493 0.712,-0.444 0.712,-0.441C0.712,-0.416 0.705,-0.4 0.7,-0.389C0.681,-0.351 0.651,-0.349 0.608,-0.35L0.292,-0.35L0.292,-0.538L0.619,-0.538Z" style="fill:rgb(255,210,1);fill-rule:nonzero;"/>
        </g>
        <g transform="matrix(30,0,0,30,458.473,401.654)">
            <path d="M0.053,-0.301C0.053,-0.211 0.055,-0.101 0.14,-0.042C0.195,-0.004 0.256,-0 0.319,0.004C0.4,0.006 0.48,0.008 0.561,0.008C0.632,0.008 0.703,0.006 0.773,0.005C0.851,-0.001 0.934,-0.01 0.988,-0.076C1.023,-0.119 1.03,-0.16 1.037,-0.212C1.039,-0.246 1.042,-0.279 1.043,-0.312C1.045,-0.363 1.043,-0.413 1.041,-0.464C1.038,-0.515 1.034,-0.56 1.009,-0.606C0.966,-0.682 0.893,-0.696 0.864,-0.701C0.853,-0.703 0.842,-0.705 0.831,-0.706C0.728,-0.711 0.626,-0.715 0.524,-0.715C0.437,-0.715 0.351,-0.711 0.265,-0.706C0.223,-0.7 0.189,-0.694 0.152,-0.672C0.102,-0.643 0.076,-0.596 0.065,-0.541C0.063,-0.53 0.061,-0.519 0.06,-0.508L0.053,-0.301ZM0.409,-0.167C0.349,-0.172 0.313,-0.18 0.295,-0.205C0.279,-0.228 0.275,-0.271 0.273,-0.331C0.274,-0.386 0.275,-0.424 0.278,-0.449C0.279,-0.454 0.282,-0.473 0.29,-0.488C0.293,-0.494 0.299,-0.504 0.313,-0.514C0.333,-0.529 0.352,-0.535 0.401,-0.538L0.703,-0.538C0.759,-0.534 0.8,-0.529 0.817,-0.473C0.822,-0.458 0.823,-0.446 0.824,-0.43L0.824,-0.277C0.82,-0.243 0.816,-0.228 0.807,-0.213C0.785,-0.175 0.743,-0.171 0.697,-0.167L0.409,-0.167Z" style="fill:rgb(255,210,1);fill-rule:nonzero;"/>
        </g>
        <g transform="matrix(30,0,0,30,502.663,401.654)">
            <path d="M0.073,-0.706L0.073,-0L0.294,-0L0.294,-0.18L0.664,-0.18C0.692,-0.177 0.718,-0.174 0.734,-0.151C0.745,-0.133 0.746,-0.114 0.746,-0.095L0.746,-0L0.965,-0L0.965,-0.123C0.965,-0.16 0.965,-0.192 0.94,-0.223C0.906,-0.267 0.849,-0.268 0.791,-0.268C0.843,-0.277 0.911,-0.289 0.945,-0.338C0.954,-0.35 0.96,-0.365 0.962,-0.37C0.976,-0.414 0.976,-0.48 0.976,-0.487C0.976,-0.497 0.977,-0.576 0.947,-0.628C0.943,-0.635 0.931,-0.653 0.912,-0.668C0.856,-0.713 0.786,-0.71 0.714,-0.706L0.073,-0.706ZM0.295,-0.537L0.66,-0.537C0.692,-0.535 0.723,-0.533 0.74,-0.513C0.759,-0.49 0.759,-0.445 0.759,-0.44C0.759,-0.435 0.758,-0.384 0.726,-0.366C0.709,-0.357 0.682,-0.355 0.641,-0.355L0.295,-0.355L0.295,-0.537Z" style="fill:rgb(255,210,1);fill-rule:nonzero;"/>
        </g>
        <g transform="matrix(30,0,0,30,543.553,401.654)">
            <path d="M0.024,-0.705L0.024,-0.541L0.336,-0.541L0.336,-0L0.558,-0L0.558,-0.542L0.876,-0.542L0.876,-0.705L0.024,-0.705Z" style="fill:rgb(255,210,1);fill-rule:nonzero;"/>
        </g>
        <g transform="matrix(30,0,0,30,580.723,401.654)">
            <path d="M0.054,-0.232C0.054,-0.179 0.053,-0.1 0.093,-0.057C0.128,-0.019 0.181,-0.01 0.228,-0.003C0.323,0.002 0.417,0.008 0.511,0.008C0.598,0.008 0.684,0.004 0.771,-0.001C0.815,-0.008 0.858,-0.015 0.891,-0.039C0.903,-0.048 0.911,-0.057 0.92,-0.069C0.942,-0.1 0.956,-0.138 0.956,-0.218C0.956,-0.321 0.924,-0.367 0.888,-0.393C0.863,-0.411 0.841,-0.419 0.783,-0.425L0.359,-0.44C0.332,-0.442 0.308,-0.443 0.289,-0.467C0.285,-0.471 0.277,-0.483 0.277,-0.498C0.277,-0.513 0.286,-0.526 0.289,-0.53C0.306,-0.552 0.331,-0.553 0.358,-0.554C0.399,-0.555 0.439,-0.557 0.48,-0.557C0.532,-0.557 0.585,-0.555 0.637,-0.552C0.694,-0.546 0.704,-0.539 0.717,-0.485L0.931,-0.484C0.933,-0.546 0.933,-0.609 0.884,-0.654C0.846,-0.689 0.797,-0.698 0.782,-0.7L0.743,-0.706C0.658,-0.71 0.573,-0.715 0.488,-0.715C0.411,-0.715 0.334,-0.712 0.257,-0.709C0.198,-0.702 0.144,-0.695 0.103,-0.651C0.091,-0.638 0.081,-0.623 0.074,-0.606C0.056,-0.561 0.056,-0.484 0.056,-0.479C0.056,-0.407 0.076,-0.364 0.098,-0.34C0.132,-0.303 0.181,-0.295 0.195,-0.293C0.205,-0.291 0.216,-0.29 0.226,-0.288C0.259,-0.286 0.292,-0.283 0.325,-0.281C0.428,-0.275 0.532,-0.274 0.636,-0.272C0.686,-0.265 0.708,-0.266 0.725,-0.242C0.734,-0.229 0.735,-0.217 0.735,-0.211C0.735,-0.187 0.716,-0.165 0.694,-0.157C0.672,-0.148 0.641,-0.151 0.634,-0.151C0.585,-0.15 0.537,-0.148 0.489,-0.149C0.444,-0.15 0.4,-0.152 0.355,-0.154C0.309,-0.158 0.288,-0.167 0.28,-0.19C0.275,-0.202 0.275,-0.215 0.275,-0.231L0.054,-0.232Z" style="fill:rgb(255,210,1);fill-rule:nonzero;"/>
        </g>
    </g>
    <g transform="matrix(0.821167,0,0,0.821167,328.582,109.974)">
        <path d="M0,-128.482L-58.439,-96.581C-58.439,-96.581 -75.838,-88.126 -81.413,-85.01C-88.512,-81.043 -89.044,-73.879 -89.044,-67.754L-89.044,0L-62.218,-14.357L-62.211,-68.507L-0.521,-101.923L0,-128.482Z" style="fill:rgb(64,63,65);fill-rule:nonzero;"/>
    </g>
    <g transform="matrix(0.821167,0,0,0.821167,363.134,102.763)">
        <path d="M0,-109.975L-0.003,-109.871L-51.469,-82.471L-51.37,15.167L-25.544,2.025L-25.883,-69.731L1.894,-84.225L1.894,-57.162L-17.669,-46.808L-17.669,-19.808C-17.669,-19.808 -0.671,-28.892 10.546,-34.922C21.763,-40.952 28.55,-46.308 28.55,-62.309C28.55,-72.809 28.72,-70.975 28.72,-70.975L28.748,-125.142L0,-109.975Z" style="fill:rgb(255,210,1);fill-rule:nonzero;"/>
    </g>
    <g transform="matrix(0.821167,0,0,0.821167,51.0199,205.421)">
        <path d="M0,-85.569C0,-85.569 -15.464,-70.501 -15.575,-70.501L-41.816,-70.501L-41.816,-17.165C-42.155,-16.465 -62.131,0 -62.131,0L-62.131,-73.776C-62.131,-75.173 -61.793,-76.571 -61.116,-77.969C-60.438,-79.366 -59.507,-80.632 -58.323,-81.768C-57.137,-82.903 -55.756,-83.821 -54.174,-84.52C-52.595,-85.219 -50.847,-85.569 -48.926,-85.569L0,-85.569Z" style="fill:rgb(64,63,65);fill-rule:nonzero;"/>
    </g>
    <g transform="matrix(0.821167,0,0,0.821167,-39.3025,-34.2515)">
        <path d="M170.599,221.106L134.37,221.106L134.37,252.553L170.599,252.553L170.599,221.106ZM114.055,215.34C114.055,214.731 114.42,213.899 115.155,212.851C115.888,211.803 116.763,210.799 117.779,209.836C118.795,208.877 119.921,208.026 121.165,207.281C122.405,206.541 123.535,206.168 124.551,206.168L180.08,206.168C181.207,206.168 182.421,206.496 183.72,207.151C185.016,207.807 186.201,208.592 187.275,209.51C188.346,210.427 189.222,211.409 189.899,212.457C190.576,213.506 190.915,214.468 190.915,215.34L190.915,257.27C190.915,257.97 190.603,258.93 189.983,260.153C189.362,261.377 188.544,262.557 187.529,263.69C186.513,264.826 185.384,265.809 184.143,266.639C182.9,267.469 181.715,267.883 180.588,267.883L124.382,267.883C123.138,267.883 121.927,267.469 120.742,266.639C119.557,265.809 118.456,264.826 117.44,263.69C116.425,262.557 115.604,261.377 114.986,260.153C114.364,258.93 114.055,257.97 114.055,257.27L114.055,215.34Z" style="fill:rgb(64,63,65);fill-rule:nonzero;"/>
    </g>
    <g transform="matrix(0.821167,0,0,0.821167,178.777,166.681)">
        <path d="M0,-15.2C1.805,-15.2 3.526,-14.873 5.164,-14.217C6.799,-13.562 8.211,-12.687 9.396,-11.596C10.581,-10.504 11.539,-9.281 12.274,-7.928C13.007,-6.572 13.375,-5.197 13.375,-3.801L13.375,11.399C13.375,12.797 13.036,14.196 12.359,15.592C11.682,16.99 10.751,18.258 9.565,19.393C8.38,20.529 6.968,21.446 5.333,22.143C3.696,22.844 1.974,23.192 0.169,23.192L-63.824,23.192C-63.824,23.192 -48.542,8.123 -48.249,8.123L-6.941,8.123L-6.941,-0.131L-50.619,-0.131C-52.54,-0.131 -54.288,-0.459 -55.867,-1.114C-57.449,-1.769 -58.83,-2.621 -60.015,-3.67C-61.2,-4.718 -62.131,-5.918 -62.809,-7.273C-63.485,-8.626 -63.824,-10.002 -63.824,-11.4L-63.824,-26.599C-63.824,-27.996 -63.485,-29.394 -62.809,-30.793C-62.131,-32.189 -61.2,-33.456 -60.015,-34.592C-58.83,-35.726 -57.449,-36.644 -55.867,-37.344C-54.288,-38.043 -52.54,-38.392 -50.619,-38.392L13.375,-38.392C13.375,-38.392 -2.089,-23.324 -2.2,-23.324L-43.509,-23.324L-43.509,-15.2L0,-15.2Z" style="fill:rgb(64,63,65);fill-rule:nonzero;"/>
    </g>
    <g transform="matrix(0.821167,0,0,0.821167,243.281,170.877)">
        <path d="M0,-25.42C0,-25.943 -0.085,-26.576 -0.254,-27.319C-0.423,-28.061 -0.96,-28.434 -1.862,-28.434L-34.028,-28.434L-34.028,-8.123L-18.792,-20.178L-1.862,-20.178C-1.074,-20.178 -0.566,-20.526 -0.338,-21.227C-0.114,-21.925 0,-22.58 0,-23.191L0,-25.42ZM-34.028,-5.109L-34.028,3.014L22.516,3.014C22.516,3.014 6.713,18.082 6.603,18.082L-42.662,18.082C-43.906,18.082 -45.202,17.754 -46.557,17.1C-47.911,16.444 -49.154,15.658 -50.281,14.741C-51.41,13.824 -52.37,12.841 -53.159,11.793C-53.95,10.744 -54.344,9.785 -54.344,8.91L-54.344,-34.33C-54.344,-35.202 -53.92,-36.185 -53.074,-37.277C-52.228,-38.369 -51.212,-39.374 -50.027,-40.291C-48.842,-41.209 -47.572,-41.973 -46.218,-42.584C-44.863,-43.195 -43.623,-43.502 -42.493,-43.502L8.295,-43.502C9.761,-43.502 11.2,-43.217 12.612,-42.65C14.022,-42.08 15.292,-41.36 16.421,-40.488C17.548,-39.614 18.453,-38.631 19.131,-37.539C19.808,-36.446 20.146,-35.378 20.146,-34.33L20.146,-14.676C20.146,-13.713 19.808,-12.664 19.131,-11.53C18.453,-10.395 17.607,-9.346 16.591,-8.386C15.575,-7.424 14.475,-6.637 13.29,-6.027C12.104,-5.415 11.004,-5.109 9.988,-5.109L-34.028,-5.109Z" style="fill:rgb(64,63,65);fill-rule:nonzero;"/>
    </g>
    <g transform="matrix(0.821167,0,0,0.821167,285.264,149.25)">
        <path d="M0,28.434L-20.316,45.599L-20.316,-6.551C-20.316,-7.249 -20.006,-8.21 -19.384,-9.434C-18.766,-10.656 -17.945,-11.836 -16.93,-12.971C-15.914,-14.106 -14.813,-15.088 -13.628,-15.92C-12.443,-16.749 -11.231,-17.165 -9.989,-17.165L46.218,-17.165C47.345,-17.165 48.529,-16.749 49.773,-15.92C51.014,-15.088 52.143,-14.106 53.158,-12.971C54.175,-11.836 54.992,-10.656 55.613,-9.434C56.232,-8.21 56.545,-7.249 56.545,-6.551L56.545,44.419L36.229,44.419L36.229,-1.835L0,-1.835L0,28.434Z" style="fill:rgb(64,63,65);fill-rule:nonzero;"/>
    </g>
    <g transform="matrix(0.821167,0,0,0.821167,357.275,143.874)">
        <path d="M0,4.588L0,36.028L36.229,36.028L36.229,4.581L0,4.588ZM-20.315,-34.204L1.889,-46.378C1.889,-46.378 1.643,-10.749 1.693,-10.749L46.218,-10.749C47.345,-10.749 48.529,-10.333 49.773,-9.505C51.014,-8.673 52.143,-7.69 53.159,-6.556C54.175,-5.42 54.992,-4.241 55.613,-3.018C56.232,-1.794 56.545,-0.834 56.545,-0.136L56.545,41.794C56.545,42.669 56.206,43.628 55.529,44.677C54.852,45.725 53.977,46.708 52.905,47.625C51.831,48.542 50.646,49.328 49.35,49.984C48.051,50.638 46.837,50.966 45.71,50.966L-9.819,50.966C-10.835,50.966 -11.965,50.596 -13.205,49.853C-14.448,49.111 -15.575,48.259 -16.591,47.298C-17.607,46.337 -18.482,45.331 -19.215,44.283C-19.95,43.235 -20.315,42.406 -20.315,41.794L-20.315,-34.204Z" style="fill:rgb(64,63,65);fill-rule:nonzero;"/>
    </g>
    <g transform="matrix(0.821167,0,0,0.821167,457.229,170.877)">
        <path d="M0,-25.42C0,-25.943 -0.084,-26.576 -0.254,-27.319C-0.423,-28.061 -0.96,-28.434 -1.862,-28.434L-34.028,-28.434L-34.028,-8.123L-18.792,-20.178L-1.862,-20.178C-1.073,-20.178 -0.565,-20.526 -0.339,-21.227C-0.113,-21.925 0,-22.58 0,-23.191L0,-25.42ZM-34.028,-5.109L-34.028,3.014L22.517,3.014C22.517,3.014 6.714,18.082 6.603,18.082L-42.662,18.082C-43.905,18.082 -45.201,17.754 -46.556,17.1C-47.91,16.444 -49.153,15.658 -50.28,14.741C-51.41,13.824 -52.37,12.841 -53.159,11.793C-53.949,10.744 -54.344,9.785 -54.344,8.91L-54.344,-34.33C-54.344,-35.202 -53.921,-36.185 -53.073,-37.277C-52.228,-38.369 -51.212,-39.374 -50.026,-40.291C-48.841,-41.209 -47.571,-41.973 -46.218,-42.584C-44.863,-43.195 -43.622,-43.502 -42.493,-43.502L8.296,-43.502C9.761,-43.502 11.2,-43.217 12.612,-42.65C14.022,-42.08 15.292,-41.36 16.422,-40.488C17.549,-39.614 18.454,-38.631 19.131,-37.539C19.808,-36.446 20.146,-35.378 20.146,-34.33L20.146,-14.676C20.146,-13.713 19.808,-12.664 19.131,-11.53C18.454,-10.395 17.606,-9.346 16.591,-8.386C15.575,-7.424 14.476,-6.637 13.29,-6.027C12.104,-5.415 11.005,-5.109 9.989,-5.109L-34.028,-5.109Z" style="fill:rgb(64,63,65);fill-rule:nonzero;"/>
    </g>
    <g transform="matrix(0.821167,0,0,0.821167,533.55,185.833)">
        <path d="M0,-61.715C0,-61.715 -15.465,-46.647 -15.576,-46.647L-41.816,-46.647L-41.816,-17.164L-62.132,0L-62.132,-49.922C-62.132,-51.319 -61.793,-52.717 -61.115,-54.115C-60.438,-55.512 -59.508,-56.778 -58.322,-57.914C-57.138,-59.049 -55.757,-59.967 -54.175,-60.666C-52.596,-61.365 -50.847,-61.715 -48.926,-61.715L0,-61.715Z" style="fill:rgb(64,63,65);fill-rule:nonzero;"/>
    </g>
    <g transform="matrix(0.821167,0,0,0.821167,-39.3025,-14.8834)">
        <path d="M758.214,197.651L721.985,197.651L721.985,228.967L758.214,228.967L758.214,197.651ZM758.214,232.504L743.484,244.297L711.996,244.297C710.753,244.297 709.512,243.883 708.271,243.053C707.028,242.223 705.928,241.24 704.971,240.104C704.01,238.971 703.219,237.791 702.6,236.567C701.979,235.344 701.669,234.384 701.669,233.684L701.669,191.885C701.669,191.013 702.008,190.051 702.685,189.002C703.361,187.954 704.234,186.971 705.309,186.055C706.381,185.137 707.536,184.352 708.779,183.695C710.02,183.041 711.261,182.713 712.504,182.713L768.033,182.713C769.049,182.713 770.176,183.041 771.419,183.695C772.659,184.352 773.789,185.137 774.805,186.055C775.82,186.971 776.693,187.954 777.429,189.002C778.162,190.051 778.529,191.013 778.529,191.885L778.529,257.27C778.529,258.404 778.275,259.582 777.768,260.807C777.26,262.029 776.553,263.166 775.651,264.214C774.746,265.262 773.675,266.113 772.435,266.769C771.191,267.424 769.836,267.752 768.371,267.752L698.117,267.752L711.661,252.815L758.214,252.815L758.214,232.504Z" style="fill:rgb(64,63,65);fill-rule:nonzero;"/>
    </g>
    <g transform="matrix(0,-0.821167,-0.821167,0,309.018,64.8385)">
        <path d="M-18.941,-3.226L8.31,-3.226L-3.608,18.941L-30.477,18.941L-18.941,-3.226Z" style="fill:rgb(255,219,52);fill-rule:nonzero;"/>
    </g>
    <g transform="matrix(0,-0.821167,-0.821167,0,291.333,99.8559)">
        <path d="M-18.94,-3.226L8.31,-3.226L-3.607,18.94L-30.476,18.94L-18.94,-3.226Z" style="fill:rgb(255,228,103);fill-rule:nonzero;"/>
    </g>
</svg>
