<?xml version="1.0" encoding="utf-8"?>
<!-- Generator: Adobe Illustrator 23.1.1, SVG Export Plug-In . SVG Version: 6.00 Build 0)  -->
<svg version="1.1" id="Layer_1" xmlns="http://www.w3.org/2000/svg" xmlns:xlink="http://www.w3.org/1999/xlink" x="0px" y="0px"
	 viewBox="0 0 333 35.6" style="enable-background:new 0 0 333 35.6;" xml:space="preserve">
<g>
	<g>
		<g>
			<g>
				<path d="M62.1,35.6c0,0,33,0,34.1,0c1.1,0,2.2-1.1,2.2-2.4c0-1.2,0-4,0-5.3c0-1.3-1.1-2.3-2.3-2.3c-1.2,0-26.4,0-26.4,0
					c-1,0-1.8-0.8-1.8-1.8c0-1,0.8-1.8,1.8-1.8c0,0,25,0,26.4,0c1.2,0,2.3-1.1,2.3-2.4c0-1.3,0-2,0-3.2c0-1.2-1.1-2.3-2.3-2.3
					c-1.2,0-26.4,0-26.4,0c-1,0-1.8-0.8-1.8-1.8c0-1,0.8-1.8,1.8-1.8c0,0,25.2,0,26.4,0c1.1,0,2.3-1.1,2.3-2.4c0-1.3,0-4.6,0-5.8
					c0-1.2-1.1-2.3-2.3-2.3c-1.2,0-34,0-34,0c-4.3,0-7.8,3.5-7.8,7.8v20.1C54.3,32.1,57.8,35.6,62.1,35.6L62.1,35.6z"/>
				<path d="M110.2,35.6h24.4c0,0,2.7,0,0.6-2.4c-0.9-1-3.6-4-5.3-5.8c-1.7-1.9-2.3-1.8-3.2-1.8c-0.9,0-7.4,0-7.4,0
					c-1.3,0-2.3-1.1-2.3-2.3V12.8c0-1.3,1.9-2.3,3.6-0.5c0,0,18.8,21,20,22.2c1.2,1.2,2.5,1.1,2.5,1.1s11.7,0,14.1,0
					c0.9,0,2-1.2,0.9-2.4L129.8,1.7c-1.6-1.6-2.2-1.7-3.5-1.7c-1.3,0-16.1,0-16.1,0c-4.3,0-7.8,3.5-7.8,7.8v20.1
					C102.4,32.1,105.9,35.6,110.2,35.6L110.2,35.6z"/>
				<path d="M204.2,25.7c0,0-28.9,0-29.8,0c-0.9,0-1.5-0.1-3.2,1.8c-1.7,1.9-4.4,4.8-5.3,5.8c-2.1,2.4,0.6,2.4,0.6,2.4h46.8
					c4.3,0,7.8-3.5,7.8-7.8V7.8c0-4.3-3.5-7.8-7.8-7.8c0,0-14.8,0-16.1,0c-1.3,0-1.9,0.2-3.5,1.7l-17.1,19.1c-1.1,1.1,0,2.3,0.9,2.3
					c2.4,0,14.1,0,14.1,0s1.3,0.1,2.5-1.1c1.2-1.2,9-9.7,9-9.7c1.6-1.9,3.6-0.8,3.6,0.5v10.6C206.5,24.6,205.5,25.7,204.2,25.7
					L204.2,25.7z"/>
				<path d="M162,25.5c6.1,0,11-4.9,11-11c0-6.1-4.9-11-11-11c-6.1,0-11,4.9-11,11C151,20.5,155.9,25.5,162,25.5L162,25.5z"/>
				<path d="M233.2,35.6h31.2c4.3,0,7.8-3.5,7.8-7.8V7.8c0-4.3-3.5-7.8-7.8-7.8l-31.2,0c-4.3,0-7.8,3.5-7.8,7.8v20.1
					C225.5,32.1,228.9,35.6,233.2,35.6L233.2,35.6z M242.2,12.3c0-1,0.8-1.9,1.9-1.9h9.5c1,0,1.9,0.8,1.9,1.9V24
					c0,1-0.8,1.9-1.9,1.9h-9.5c-1,0-1.9-0.8-1.9-1.9V12.3L242.2,12.3z"/>
				<path d="M284.2,35.6h31.2c4.3,0,7.8-3.5,7.8-7.8V7.8c0-4.3-3.5-7.8-7.8-7.8l-31.2,0c-4.3,0-7.8,3.5-7.8,7.8v20.1
					C276.4,32.1,279.9,35.6,284.2,35.6L284.2,35.6z M293.2,12.3c0-1,0.8-1.9,1.9-1.9h9.5c1,0,1.9,0.8,1.9,1.9V24
					c0,1-0.8,1.9-1.9,1.9H295c-1,0-1.9-0.8-1.9-1.9V12.3L293.2,12.3z"/>
				<path d="M2.3,35.6c1.3,0,39.8,0,39.8,0c4.3,0,7.8-3.5,7.8-7.8c0,0,0-10.1,0-11.4c0-1.3-1-2.3-2.3-2.3c-1.4,0-25.4,0-25.4,0
					c-1.1,0-2-0.8-2-1.8c0-1,0.9-1.8,2-1.8c0,0,24.1,0,25.4,0c1.3,0,2.3-1.1,2.3-2.4c0-1.2,0-4.5,0-5.7c0-1.3-1.1-2.3-2.3-2.3
					c-1.3,0-33.9,0-33.9,0C9.2,0,5.7,3.5,5.7,7.8c0,0,0,9.6,0,11.9c0,1.5,1,2.4,2.3,2.4c1.3,0,22.8,0,22.8,0c1.2,0,2.1,0.8,2.1,1.8
					c0,1-1,1.8-2.1,1.8c0,0-27.4,0-28.6,0C1,25.7,0,26.8,0,28c0,1.2,0,4,0,5.3C0,34.7,1,35.6,2.3,35.6L2.3,35.6z"/>
			</g>
			<g>
				<g>
					<path d="M329.4,35.6c2,0,3.7-1.6,3.7-3.6c0-2-1.7-3.6-3.7-3.6c-2,0-3.7,1.6-3.7,3.6C325.7,34,327.3,35.6,329.4,35.6z
						 M329.4,29.1c1.7,0,3,1.3,3,3c0,1.6-1.3,3-3,3c-1.7,0-3-1.3-3-3C326.3,30.4,327.7,29.1,329.4,29.1z"/>
					<path d="M328.7,32.4h0.6l1,1.7h0.8l-1.1-1.7c0.6-0.1,1-0.4,1-1.1c0-0.8-0.5-1.2-1.5-1.2h-1.6v4.1h0.8V32.4z M328.7,30.6h0.6
						c0.5,0,1,0,1,0.6c0,0.6-0.5,0.6-1,0.6h-0.6V30.6z"/>
				</g>
			</g>
		</g>
	</g>
</g>
</svg>
