<?xml version="1.0" encoding="utf-8"?>
<!-- Generator: Adobe Illustrator 22.1.0, SVG Export Plug-In . SVG Version: 6.00 Build 0)  -->
<svg version="1.1" id="Calque_1" xmlns="http://www.w3.org/2000/svg" xmlns:xlink="http://www.w3.org/1999/xlink" x="0px" y="0px"
	 viewBox="0 0 312.6 82.1" style="enable-background:new 0 0 312.6 82.1;" xml:space="preserve">
<g>
	<g>
		<polygon points="239.9,71.9 242.7,71.9 242.7,79.6 243.7,79.6 243.7,71.9 246.4,71.9 246.4,70.9 239.9,70.9 		"/>
		<polygon points="254.9,70.9 251.8,78.2 248.6,70.9 247.7,70.9 247.7,79.6 248.7,79.6 248.7,73.5 251.3,79.6 252.2,79.6 
			254.9,73.5 254.9,79.6 255.9,79.6 255.9,70.9 		"/>
	</g>
	<path d="M77.4,0L61.5,11.8L64.7,0H9.3L0,34.6l30.9,27.3h0.5l-27,20.2h73.4l24.2-19.7l22.9,19.7h39l18-11.2l-3,11.2h54.6l3.5-13
		l68.6-42.4l7-26.7H77.4z M98.6,51.1L73.9,71.3H33.6l28.1-20.2H35L12.2,31l5.4-20.2h33l-5,18.6h0L45.2,31l0,0L44.4,34h43.4
		l-15.4-4.6l5-18.6h32.1L98.6,51.1z M160.8,71.3h-31.9l-23.4-20.2l10.9-40.3h86.4l-2.4,9.4L165.5,41l2.7-10h-23.1h-2h-16.7l15.4,4.6
		l0,0l-4.2,15.5h55.6L160.8,71.3z M296.2,19.6l-34.1,19.9l2.3-8.6h-45l15.4,4.6l-2.9,10.8h20.8l-25,15.7l-2.5,9.1H193l16.3-60.5
		h89.2L296.2,19.6z"/>
</g>
</svg>
